#N canvas 195 133 1363 775 10;
#X obj 584 645 receive~ fb1;
#X obj 207 624 send~ fb1;
#X obj 133 485 +~;
#X obj 206 595 *~;
#X obj 133 412 sig~;
#X obj 133 439 delread4~ delay1;
#X obj 560 668 +~;
#X obj 222 568 sig~;
#X floatatom 397 601 5 0 0 0 - - -, f 5;
#X obj 397 499 float;
#X obj 397 455 t bang float;
#X obj 289 85 bng 15 250 50 0 empty empty empty 17 7 0 10 -262144 -1
-1;
#X obj 282 109 int;
#X floatatom 282 195 5 0 0 0 - - -, f 5;
#X obj 282 133 sel 1;
#X msg 304 169 0;
#X msg 338 170 1;
#X obj 282 217 sel 1;
#X msg 287 277 0;
#X obj 397 526 spigot 1;
#X floatatom 222 536 5 0 0 0 - - -, f 5;
#X obj 328 235 bng 15 250 50 0 empty empty empty 17 7 0 10 -262144
-1 -1;
#X obj 298 239 bng 15 250 50 0 empty empty empty 17 7 0 10 -262144
-1 -1;
#X obj 323 277 t b b;
#X msg 351 297 1;
#X msg 256 277 1;
#X obj 560 699 delwrite~ delay1 60000;
#X floatatom 133 352 8 0 0 0 - - -, f 8;
#X obj 133 233 hsl 128 15 0 4000 0 0 empty empty delay\ time -2 -8
0 10 -262144 -1 -1 6800 1;
#X obj 133 331 mtof;
#X floatatom 213 333 5 0 0 0 - - -, f 5;
#X obj 133 305 clip 0 144;
#X obj 133 269 / 27;
#X obj 45 418 metro 1;
#X obj 28 351 bng 15 250 50 0 empty empty empty 17 7 0 10 -262144 -1
-1;
#X obj 46 501 bng 15 250 50 0 empty empty empty 17 7 0 10 -262144 -1
-1;
#X obj 0 386 loadbang;
#X msg 47 349 1;
#X obj 414 387 hsl 139 15 0 4000 0 0 empty empty feedback -2 -8 0 10
-262144 -1 -1 8300 1;
#X obj 397 424 / 3630;
#X obj 629 396 hsl 128 15 0 4000 0 0 empty empty delay\ feed -2 -8
0 10 -262144 -1 -1 12700 1;
#X obj 631 419 / 4000;
#X text 287 63 loop;
#X text 32 477 clk out;
#X obj 658 117 terminal_tedium_adc;
#X msg 658 80 open;
#X obj 657 46 loadbang;
#X obj 659 150 s d1-feed;
#X obj 672 172 s d1-time;
#X obj 686 195 s d1-fbk;
#X obj 700 226 s d2-feed;
#X obj 712 248 s d2-time;
#X obj 727 271 s d2-fbk;
#X obj 700 80 metro 10;
#X obj 800 39 loadbang;
#X obj 800 68 delay 300;
#X msg 800 97 \; pd dsp 1 \;;
#X obj 899 35 tedium_input 23;
#X obj 1011 35 tedium_input 24;
#X obj 900 61 s d1-loop;
#X obj 1011 60 s d2-loop;
#X obj 801 158 adc~;
#X obj 801 190 s~ d1-input;
#X obj 822 216 s~ d2-input;
#X obj 548 44 r~ d2-input;
#X obj 924 151 r~ d1-output;
#X obj 946 181 r~ d2-output;
#X obj 926 223 dac~;
#X obj 135 723 s~ d1-output;
#X obj 281 21 r d1-loop;
#X obj 1063 140 tedium_output 12;
#X obj 1063 206 tedium_output 26;
#X obj 1063 103 r d1-clkout;
#X obj 1063 172 r d2-clkout;
#X obj 41 719 s d1-clkout;
#X obj 562 607 *~;
#X obj 583 575 sig~;
#X obj 631 476 float;
#X obj 631 510 spigot 1;
#X obj 631 441 t bang float;
#X msg 568 304 1;
#X floatatom 584 543 5 0 0 0 - - -, f 5;
#X obj 133 19 r d1-time;
#X obj 400 21 r d1-fbk;
#X connect 0 0 6 1;
#X connect 2 0 3 0;
#X connect 2 0 68 0;
#X connect 3 0 1 0;
#X connect 4 0 5 0;
#X connect 5 0 2 0;
#X connect 6 0 26 0;
#X connect 7 0 3 1;
#X connect 9 0 19 0;
#X connect 10 0 9 0;
#X connect 10 1 9 1;
#X connect 11 0 12 0;
#X connect 12 0 14 0;
#X connect 12 0 13 0;
#X connect 13 0 17 0;
#X connect 14 0 15 0;
#X connect 14 1 16 0;
#X connect 15 0 12 1;
#X connect 16 0 12 1;
#X connect 17 0 18 0;
#X connect 17 0 22 0;
#X connect 17 0 25 0;
#X connect 17 1 21 0;
#X connect 17 1 23 0;
#X connect 18 0 19 1;
#X connect 18 0 78 1;
#X connect 18 0 81 0;
#X connect 19 0 8 0;
#X connect 19 0 20 0;
#X connect 20 0 7 0;
#X connect 23 0 9 0;
#X connect 23 0 77 0;
#X connect 23 1 24 0;
#X connect 23 1 80 0;
#X connect 24 0 19 1;
#X connect 25 0 20 0;
#X connect 27 0 4 0;
#X connect 27 0 33 1;
#X connect 27 0 37 0;
#X connect 28 0 32 0;
#X connect 29 0 27 0;
#X connect 31 0 29 0;
#X connect 31 0 30 0;
#X connect 32 0 31 0;
#X connect 33 0 35 0;
#X connect 33 0 74 0;
#X connect 34 0 33 0;
#X connect 36 0 33 0;
#X connect 37 0 33 0;
#X connect 38 0 39 0;
#X connect 39 0 10 0;
#X connect 40 0 41 0;
#X connect 41 0 79 0;
#X connect 44 0 47 0;
#X connect 44 1 48 0;
#X connect 44 2 49 0;
#X connect 44 3 50 0;
#X connect 44 4 51 0;
#X connect 44 5 52 0;
#X connect 45 0 44 0;
#X connect 46 0 45 0;
#X connect 46 0 53 0;
#X connect 53 0 44 0;
#X connect 54 0 55 0;
#X connect 55 0 56 0;
#X connect 57 0 59 0;
#X connect 58 0 60 0;
#X connect 61 0 62 0;
#X connect 61 1 63 0;
#X connect 64 0 75 0;
#X connect 65 0 67 0;
#X connect 66 0 67 1;
#X connect 69 0 12 0;
#X connect 72 0 70 0;
#X connect 73 0 71 0;
#X connect 75 0 6 0;
#X connect 76 0 75 1;
#X connect 77 0 78 0;
#X connect 78 0 81 0;
#X connect 79 0 77 0;
#X connect 79 1 77 1;
#X connect 80 0 78 1;
#X connect 81 0 76 0;
#X connect 82 0 32 0;
#X connect 83 0 39 0;
