#N canvas 71 23 1440 799 12;
#X obj 342 625 *~ 0.9;
#X obj 1717 711 s adc0;
#X obj 1773 711 s adc1;
#X obj 1831 711 s adc2;
#X obj 1886 712 s adc3;
#X obj 1940 714 s adc4;
#X obj 2000 718 s adc5;
#X msg 1751 541 open;
#X obj 1854 623 terminal_tedium_adc;
#X obj 1768 435 loadbang;
#X obj 1768 461 delay 300;
#X msg 1768 487 \; pd dsp 1 \;;
#X msg 1881 488 1;
#X obj 1854 560 metro 2;
#X obj 461 605 / 4000;
#X obj 172 21 adc~;
#X obj 185 52 *~ 1;
#X obj 468 794 / 4000;
#X obj 362 911 *~ 0.5;
#X obj 450 820 *~ 1;
#X obj 394 148 bng 15 250 50 0 empty empty empty 17 7 0 10 -262144
-1 -1;
#X obj 328 378 timer;
#X obj 328 299 tgl 15 0 empty empty empty 17 7 0 10 -262144 -1 -1 1
1;
#X obj 328 338 sel 0 1;
#X text 382 454 ms for delay;
#X text 322 261 tap;
#X obj 480 250 loadbang;
#X msg 480 282 1;
#X obj 328 409 moses 10000;
#X obj 427 442 bng 15 250 50 0 empty empty empty 17 7 0 10 -262144
-1 -1;
#X obj 1540 528 tedium_output 12;
#X floatatom 329 473 5 0 0 0 - - -, f 5;
#X obj 461 580 r adc1;
#X obj 301 823 /~ 1;
#X obj 468 768 r adc0;
#X obj 181 118 send~ audio_in_L;
#X obj 285 741 receive~ audio_in_L;
#X obj 600 149 receive~ audio_in_L;
#X obj 623 249 receive~ delay_L;
#X obj 335 527 delread~ delay_L;
#X obj 451 743 receive~ delay_L;
#X obj 342 682 send~ delay_L;
#X obj 843 627 *~ 0.9;
#X obj 962 607 / 4000;
#X obj 249 27 *~ 1;
#X obj 793 830 / 4000;
#X obj 688 921 *~ 0.5;
#X obj 775 856 *~ 1;
#X obj 828 181 bng 15 250 50 0 empty empty empty 17 7 0 10 -262144
-1 -1;
#X obj 829 380 timer;
#X obj 829 301 tgl 15 0 empty empty empty 17 7 0 10 -262144 -1 -1 1
1;
#X obj 829 340 sel 0 1;
#X text 883 456 ms for delay;
#X obj 981 252 loadbang;
#X msg 981 284 1;
#X obj 829 411 moses 10000;
#X obj 928 444 bng 15 250 50 0 empty empty empty 17 7 0 10 -262144
-1 -1;
#X floatatom 830 451 5 0 0 0 - - -, f 5;
#X obj 626 859 /~ 1;
#X obj 241 86 send~ audio_in_R;
#X obj 1108 43 receive~ audio_in_R;
#X obj 1130 72 receive~ delay_R;
#X obj 836 529 delread~ delay_R;
#X obj 843 684 send~ delay_R;
#X obj 610 777 receive~ audio_in_R;
#X obj 776 779 receive~ delay_R;
#X obj 793 804 r adc3;
#X obj 962 582 r adc4;
#X obj 1399 513 s tempo_R;
#X obj 438 58 r tempo_L;
#X obj 800 82 r tempo_R;
#X obj 1531 316 f;
#X obj 1566 316 + 1;
#X floatatom 1526 450 5 0 0 0 - - -, f 5;
#X obj 1510 273 tedium_input 24;
#X text 1511 239 Tap tempo;
#X obj 1531 349 % 2;
#X obj 1528 392 * 4;
#X obj 1487 590 tedium_output 26;
#X obj 1765 277 s tempo_L;
#X obj 1909 199 f;
#X obj 1944 199 + 1;
#X obj 1909 232 % 2;
#X floatatom 1909 262 5 0 0 0 - - -, f 5;
#X obj 1955 55 tedium_input 4;
#X obj 1846 344 tedium_output 16;
#X obj 1397 542 s tempo_L;
#X obj 2180 187 f;
#X obj 2215 187 + 1;
#X obj 2180 220 % 2;
#X floatatom 2180 250 5 0 0 0 - - -, f 5;
#X obj 2179 298 tedium_output 12;
#X obj 2036 265 s tempo_R;
#X obj 2159 118 tedium_input 14;
#X obj 601 278 delwrite~ delay_L 1000;
#X obj 1108 101 delwrite~ delay_R 1000;
#X obj 510 634 lop~;
#X obj 562 615 r adc2;
#X obj 562 646 * 5;
#X obj 939 657 lop~;
#X obj 1016 663 * 5;
#X obj 1016 632 r adc5;
#N canvas 510 102 994 724 rev_L 1;
#X obj 52 277 delwrite~ \$0-del 5000;
#X obj 260 490 vd~ \$0-del;
#X obj 261 444 line~;
#X obj 261 377 pack f f f;
#X msg 261 413 \$1 \, \$2 \$3;
#X floatatom 284 340 5 0 0 0 - - -, f 5;
#X floatatom 335 340 5 0 0 0 - - -, f 5;
#X floatatom 386 340 5 0 0 0 - - -, f 5;
#X obj 386 213 / 2;
#X obj 261 252 metro 250;
#X obj 261 223 tgl 15 0 empty empty empty 0 -6 0 8 -44926 -1 -1 0 1
;
#X obj 53 232 inlet~ audio;
#X obj 344 187 nbx 5 14 -1e+37 1e+37 0 0 empty empty empty 0 -6 0 10
-241291 -1 -1 0 256;
#X obj 595 210 f;
#X obj 630 210 + 1;
#X obj 595 243 % 2;
#X floatatom 595 273 5 0 0 0 - - -, f 5;
#X obj 489 84 tedium_input 23;
#X text 476 56 tact switches #0-2:;
#X obj 642 95 tedium_input 17;
#X obj 532 355 tedium_output 16;
#X obj 594 321 tedium_output 12;
#X text 636 43 gate inputs #0-3:;
#X obj 347 152 r tim_L;
#X obj 259 546 outlet~;
#X connect 1 0 24 0;
#X connect 2 0 1 0;
#X connect 3 0 4 0;
#X connect 4 0 2 0;
#X connect 5 0 3 0;
#X connect 6 0 3 1;
#X connect 7 0 3 2;
#X connect 8 0 7 0;
#X connect 8 0 9 1;
#X connect 9 0 3 0;
#X connect 10 0 9 0;
#X connect 11 0 0 0;
#X connect 12 0 8 0;
#X connect 12 0 6 0;
#X connect 13 0 14 0;
#X connect 13 0 15 0;
#X connect 14 0 13 1;
#X connect 15 0 16 0;
#X connect 16 0 20 0;
#X connect 16 0 21 0;
#X connect 16 0 10 0;
#X connect 17 0 13 0;
#X connect 19 0 13 0;
#X connect 23 0 12 0;
#X restore 437 860 pd rev_L;
#N canvas 385 91 994 724 rev_R 1;
#X obj 261 444 line~;
#X obj 261 377 pack f f f;
#X msg 261 413 \$1 \, \$2 \$3;
#X floatatom 284 340 5 0 0 0 - - -, f 5;
#X floatatom 335 340 5 0 0 0 - - -, f 5;
#X floatatom 386 340 5 0 0 0 - - -, f 5;
#X obj 386 213 / 2;
#X obj 261 252 metro 250;
#X obj 261 223 tgl 15 0 empty empty empty 0 -6 0 8 -44926 -1 -1 0 1
;
#X obj 53 232 inlet~ audio;
#X obj 344 187 nbx 5 14 -1e+37 1e+37 0 0 empty empty empty 0 -6 0 10
-241291 -1 -1 0 256;
#X obj 595 210 f;
#X obj 630 210 + 1;
#X obj 595 243 % 2;
#X floatatom 595 273 5 0 0 0 - - -, f 5;
#X text 476 56 tact switches #0-2:;
#X obj 532 355 tedium_output 16;
#X obj 594 321 tedium_output 12;
#X text 636 43 gate inputs #0-3:;
#X obj 347 152 r tim_R;
#X obj 489 84 tedium_input 25;
#X obj 642 95 tedium_input 27;
#X obj 52 277 delwrite~ \$1-del 5000;
#X obj 260 490 vd~ \$1-del;
#X obj 259 546 outlet~;
#X connect 0 0 23 0;
#X connect 1 0 2 0;
#X connect 2 0 0 0;
#X connect 3 0 1 0;
#X connect 4 0 1 1;
#X connect 5 0 1 2;
#X connect 6 0 5 0;
#X connect 6 0 7 1;
#X connect 7 0 1 0;
#X connect 8 0 7 0;
#X connect 9 0 22 0;
#X connect 10 0 6 0;
#X connect 10 0 4 0;
#X connect 11 0 12 0;
#X connect 11 0 13 0;
#X connect 12 0 11 1;
#X connect 13 0 14 0;
#X connect 14 0 16 0;
#X connect 14 0 17 0;
#X connect 14 0 8 0;
#X connect 19 0 10 0;
#X connect 20 0 11 0;
#X connect 21 0 11 0;
#X connect 23 0 24 0;
#X restore 756 885 pd rev_R;
#X obj 278 506 s tim_L;
#X obj 756 488 s tim_R;
#X obj 509 942 dac~;
#X connect 0 0 41 0;
#X connect 7 0 8 0;
#X connect 8 0 1 0;
#X connect 8 1 2 0;
#X connect 8 2 3 0;
#X connect 8 3 4 0;
#X connect 8 4 5 0;
#X connect 8 5 6 0;
#X connect 9 0 10 0;
#X connect 10 0 11 0;
#X connect 10 0 7 0;
#X connect 10 0 12 0;
#X connect 12 0 13 0;
#X connect 13 0 8 0;
#X connect 14 0 0 1;
#X connect 15 0 16 0;
#X connect 15 1 44 0;
#X connect 16 0 35 0;
#X connect 17 0 19 1;
#X connect 17 0 33 1;
#X connect 18 0 106 0;
#X connect 19 0 102 0;
#X connect 20 0 22 0;
#X connect 21 0 28 0;
#X connect 22 0 23 0;
#X connect 23 0 21 0;
#X connect 23 1 21 1;
#X connect 26 0 27 0;
#X connect 27 0 22 0;
#X connect 28 0 31 0;
#X connect 28 1 29 0;
#X connect 31 0 39 0;
#X connect 31 0 104 0;
#X connect 32 0 14 0;
#X connect 33 0 18 0;
#X connect 34 0 17 0;
#X connect 36 0 33 0;
#X connect 37 0 94 0;
#X connect 38 0 94 0;
#X connect 39 0 0 0;
#X connect 40 0 19 0;
#X connect 42 0 63 0;
#X connect 43 0 42 1;
#X connect 44 0 59 0;
#X connect 45 0 47 1;
#X connect 45 0 58 1;
#X connect 46 0 106 1;
#X connect 47 0 103 0;
#X connect 48 0 50 0;
#X connect 49 0 55 0;
#X connect 50 0 51 0;
#X connect 51 0 49 0;
#X connect 51 1 49 1;
#X connect 53 0 54 0;
#X connect 54 0 50 0;
#X connect 55 0 57 0;
#X connect 55 1 56 0;
#X connect 57 0 62 0;
#X connect 57 0 105 0;
#X connect 58 0 46 0;
#X connect 60 0 95 0;
#X connect 61 0 95 0;
#X connect 62 0 42 0;
#X connect 64 0 58 0;
#X connect 65 0 47 0;
#X connect 66 0 45 0;
#X connect 67 0 43 0;
#X connect 69 0 20 0;
#X connect 70 0 48 0;
#X connect 71 0 72 0;
#X connect 71 0 76 0;
#X connect 72 0 71 1;
#X connect 73 0 78 0;
#X connect 73 0 30 0;
#X connect 73 0 86 0;
#X connect 74 0 71 0;
#X connect 76 0 77 0;
#X connect 77 0 73 0;
#X connect 77 0 68 0;
#X connect 80 0 81 0;
#X connect 80 0 82 0;
#X connect 81 0 80 1;
#X connect 82 0 83 0;
#X connect 83 0 85 0;
#X connect 83 0 79 0;
#X connect 84 0 80 0;
#X connect 87 0 88 0;
#X connect 87 0 89 0;
#X connect 88 0 87 1;
#X connect 89 0 90 0;
#X connect 90 0 91 0;
#X connect 90 0 92 0;
#X connect 93 0 87 0;
#X connect 96 0 18 0;
#X connect 97 0 98 0;
#X connect 98 0 96 1;
#X connect 99 0 46 0;
#X connect 100 0 99 1;
#X connect 101 0 100 0;
#X connect 102 0 96 0;
#X connect 103 0 99 0;
