#N canvas 239 40 1386 984 10;
#X obj 95 533 hsl 128 15 -3 3 0 0 empty empty varispeed -2 -8 0 10
-262144 -1 -1 0 1;
#X obj 62 629 tgl 15 0 empty empty play 17 7 0 10 -262144 -1 -1 1 1
;
#X obj 342 812 bng 15 250 50 0 empty empty empty 17 7 0 10 -262144
-1 -1;
#X obj 342 841 s eos;
#X obj 92 496 r varispeed;
#N canvas 166 240 550 382 todo 0;
#X text 98 174 expo bipolar response for varispeed control;
#X text 99 93 gene shift;
#X restore 56 42 pd todo;
#X obj 1105 82 loadbang;
#X obj 212 707 s~ processed;
#X obj 892 440 hsl 128 15 0 1 0 0 empty empty sound_on_sound -2 -8
0 10 -262144 -1 -1 0 1;
#X obj 890 471 s sos;
#N canvas 0 22 450 300 crossfade~ 0;
#X obj 97 63 inlet~;
#X obj 176 63 inlet~;
#X obj 255 63 inlet;
#X obj 173 257 outlet~;
#X obj 112 134 *~;
#X obj 133 102 expr~ 1 - $v1;
#X obj 175 134 *~;
#X connect 0 0 4 0;
#X connect 1 0 6 0;
#X connect 2 0 5 0;
#X connect 2 0 6 1;
#X connect 4 0 3 0;
#X connect 5 0 4 1;
#X connect 6 0 3 0;
#X restore 212 787 pd crossfade~;
#X obj 276 747 r sos;
#X obj 212 747 r~ input;
#X obj 212 906 dac~;
#X obj 212 866 *~ 1;
#X obj 1216 136 s initbang;
#X obj 62 576 r initbang;
#X obj 69 599 r playControl;
#X obj 1105 112 delay 1000;
#X msg 1105 142 \; pd dsp 1 \;;
#X obj 219 820 osc~ 220;
#X connect 2 0 3 0;
#X connect 4 0 0 0;
#X connect 6 0 18 0;
#X connect 8 0 9 0;
#X connect 11 0 10 2;
#X connect 12 0 10 0;
#X connect 14 0 13 0;
#X connect 14 0 13 1;
#X connect 16 0 1 0;
#X connect 17 0 1 0;
#X connect 18 0 19 0;
#X connect 18 0 15 0;
#X connect 20 0 14 0;
