#N canvas 239 40 1386 984 10;
#X msg 599 260 start;
#X msg 653 261 stop;
#N canvas 207 22 852 763 playhead 0;
#X obj 198 658 outlet~;
#X obj 365 657 outlet~;
#X text 195 684 playback;
#X obj 239 63 inlet;
#X obj 135 64 inlet;
#X text 133 36 play speed;
#X text 20 18 play state (0 or 1);
#X obj 49 60 inlet;
#X obj 289 354 phasor~ 1;
#X obj 287 400 *~;
#X obj 257 548 *~;
#X obj 50 293 sel 1;
#X obj 50 329 t b b;
#X msg 346 473 1;
#X msg 419 477 0;
#X msg 339 325 0;
#X obj 256 313 *~ 1;
#X obj 355 63 inlet;
#X text 360 30 sample length (ms);
#X obj 513 101 samplerate~;
#X obj 490 212 / 1000;
#X obj 491 247 *;
#X obj 253 243 expr 1 / ($f1 / 1000);
#X obj 399 410 *~;
#X text 346 680 play position (ms);
#X obj 496 652 outlet~;
#X text 498 680 play position (0-1);
#X obj 268 462 +~ 0;
#X text 237 38 start pos (ms);
#X obj 407 211 / 1000;
#X obj 407 247 *;
#X obj 364 553 *~;
#X obj 494 563 *~;
#X obj 652 657 outlet;
#X text 648 682 end of loop;
#X obj 653 543 spigot;
#X obj 504 608 abs~;
#X obj 372 613 abs~;
#X obj 502 394 expr~ $v1 > 0.99;
#X obj 502 428 threshold~ 0.5 1 0.5 0;
#X obj 244 496 tabread4~ reel;
#N canvas 36 29 1008 713 envelope~ 0;
#N canvas 0 22 450 278 (subpatch) 0;
#X array \$0-envelope 512 float 1;
#A 0 0 0 0.0507812 0.101562 0.152344 0.203125 0.253906 0.304688 0.355469
0.40625 0.457031 0.507812 0.558594 0.609375 0.660156 0.710938 0.761719
0.8125 0.863281 0.914062 0.964844 1 1 1 1 1 1 1 1 1 1 1 1 1 1 1 1 1
1 1 1 1 1 1 1 1 1 1 1 1 1 1 1 1 1 1 1 1 1 1 1 1 1 1 1 1 1 1 1 1 1 1
1 1 1 1 1 1 1 1 1 1 1 1 1 1 1 1 1 1 1 1 1 1 1 1 1 1 1 1 1 1 1 1 1 1
1 1 1 1 1 1 1 1 1 1 1 1 1 1 1 1 1 1 1 1 1 1 1 1 1 1 1 1 1 1 1 1 1 1
1 1 1 1 1 1 1 1 1 1 1 1 1 1 1 1 1 1 1 1 1 1 1 1 1 1 1 1 1 1 1 1 1 1
1 1 1 1 1 1 1 1 1 1 1 1 1 1 1 1 1 1 1 1 1 1 1 1 1 1 1 1 1 1 1 1 1 1
1 1 1 1 1 1 1 1 1 1 1 1 1 1 1 1 1 1 1 1 1 1 1 1 1 1 1 1 1 1 1 1 1 1
1 1 1 1 1 1 1 1 1 1 1 1 1 1 1 1 1 1 1 1 1 1 1 1 1 1 1 1 1 1 1 1 1 1
1 1 1 1 1 1 1 1 1 1 1 1 1 1 1 1 1 1 1 1 1 1 1 1 1 1 1 1 1 1 1 1 1 1
1 1 1 1 1 1 1 1 1 1 1 1 1 1 1 1 1 1 1 1 1 1 1 1 1 1 1 1 1 1 1 1 1 1
1 1 1 1 1 1 1 1 1 1 1 1 1 1 1 1 1 1 1 1 1 1 1 1 1 1 1 1 1 1 1 1 1 1
1 1 1 1 1 1 1 1 1 1 1 1 1 1 1 1 1 1 1 1 1 1 1 1 1 1 1 1 1 1 1 1 1 1
1 1 1 1 1 1 1 1 1 1 1 1 1 1 1 1 1 1 1 1 1 1 1 1 1 1 1 1 1 1 1 1 1 1
1 1 1 1 1 1 1 1 1 1 1 1 1 1 1 1 1 1 1 1 1 1 1 1 1 1 1 1 1 1 1 1 1 1
1 1 1 1 1 1 1 1 1 1 1 1 1 1 1 0.964844 0.914062 0.863281 0.8125 0.761719
0.710938 0.660156 0.609375 0.558594 0.507812 0.457031 0.40625 0.355469
0.304688 0.253906 0.203125 0;
#X coords 0 1 512 0 200 140 1 0 0;
#X restore 593 557 graph;
#N canvas 0 22 554 573 generateEnvelope 0;
#X obj 91 300 t f b;
#X obj 91 125 bng 15 250 50 0 empty empty empty 17 7 0 10 -262144 -1
-1;
#X obj 118 351 f;
#X obj 159 352 + 1;
#X obj 90 388 clip 0 1;
#X obj 91 451 tabwrite \$0-envelope;
#X msg 159 172 0;
#X floatatom 181 374 5 0 0 0 - - -, f 5;
#X floatatom 129 416 5 0 0 0 - - -, f 5;
#X obj 91 147 t b b b;
#X msg 90 192 13 256;
#X msg 105 249 0 256;
#X obj 91 277 line 0 1, f 14;
#X obj 105 225 delay 300;
#X connect 0 0 4 0;
#X connect 0 1 2 0;
#X connect 1 0 9 0;
#X connect 2 0 3 0;
#X connect 2 0 5 1;
#X connect 2 0 7 0;
#X connect 3 0 2 1;
#X connect 4 0 5 0;
#X connect 4 0 8 0;
#X connect 6 0 2 1;
#X connect 6 0 12 0;
#X connect 9 0 13 0;
#X connect 9 1 10 0;
#X connect 9 2 6 0;
#X connect 10 0 12 0;
#X connect 11 0 12 0;
#X connect 12 0 0 0;
#X connect 13 0 11 0;
#X restore 45 580 pd generateEnvelope;
#X obj 335 147 tabread4~ \$0-envelope;
#X obj 335 105 *~ 512;
#X obj 335 22 inlet~;
#X text 392 24 index signal;
#X obj 336 234 outlet~;
#X connect 2 0 6 0;
#X connect 3 0 2 0;
#X connect 4 0 3 0;
#X restore 75 544 pd envelope~;
#X obj 197 619 *~;
#X obj 512 47 r initbang;
#X obj 252 168 r initbang;
#X msg 252 203 1;
#X connect 3 0 29 0;
#X connect 4 0 16 1;
#X connect 7 0 11 0;
#X connect 8 0 9 0;
#X connect 8 0 23 0;
#X connect 8 0 32 0;
#X connect 8 0 38 0;
#X connect 8 0 41 0;
#X connect 9 0 27 0;
#X connect 10 0 42 0;
#X connect 11 0 12 0;
#X connect 11 1 14 0;
#X connect 12 0 13 0;
#X connect 12 1 15 0;
#X connect 13 0 10 1;
#X connect 13 0 31 1;
#X connect 13 0 32 1;
#X connect 13 0 35 1;
#X connect 14 0 10 1;
#X connect 14 0 31 1;
#X connect 14 0 32 1;
#X connect 14 0 35 1;
#X connect 15 0 8 1;
#X connect 16 0 8 0;
#X connect 17 0 20 0;
#X connect 17 0 22 0;
#X connect 17 0 23 1;
#X connect 19 0 21 1;
#X connect 19 0 30 1;
#X connect 20 0 21 0;
#X connect 21 0 9 1;
#X connect 22 0 16 0;
#X connect 23 0 31 0;
#X connect 27 0 40 0;
#X connect 29 0 30 0;
#X connect 30 0 27 1;
#X connect 31 0 37 0;
#X connect 31 0 1 0;
#X connect 32 0 36 0;
#X connect 32 0 25 0;
#X connect 35 0 33 0;
#X connect 38 0 39 0;
#X connect 39 0 35 0;
#X connect 40 0 10 0;
#X connect 41 0 42 1;
#X connect 42 0 0 0;
#X connect 43 0 19 0;
#X connect 44 0 45 0;
#X connect 45 0 22 0;
#X restore 212 687 pd playhead;
#X obj 95 553 hsl 128 15 -3 3 0 0 empty empty varispeed -2 -8 0 10
-262144 -1 -1 0 1;
#X obj 62 649 tgl 15 0 empty empty play 17 7 0 10 -262144 -1 -1 0 1
;
#N canvas 150 59 1280 699 splices 0;
#X obj 113 99 inlet;
#X text 109 71 integer to add splice;
#X text 33 22 splices are time measurements in ms;
#X obj 344 83 inlet;
#X text 338 62 float 0-1 to locate a splice;
#X obj 350 418 outlet;
#X obj 643 51 inlet;
#X obj 657 156 bng 15 250 50 0 empty empty empty 17 7 0 10 -262144
-1 -1;
#X obj 720 419 array define splicetable;
#X obj 110 360 s \$0-splicecount;
#X obj 868 323 list trim;
#X msg 868 271 symbol resize;
#X obj 868 297 pack s 0;
#X obj 887 271 print newsize;
#X msg 614 280 const -1;
#X msg 692 277 resize 1;
#X obj 110 334 array size splicetable;
#X obj 111 444 array get splicetable;
#X obj 111 411 bng 15 250 50 0 empty empty empty 17 7 0 10 -262144
-1 -1;
#X obj 110 310 bng 15 250 50 0 empty empty empty 17 7 0 10 -262144
-1 -1;
#X obj 111 479 print splicetable;
#N canvas 277 61 1021 565 locateSplice 0;
#X obj 211 43 inlet;
#X obj 186 490 outlet;
#X text 292 484 list output when splice index located;
#X text 288 38 float 0-1 to locate a splice;
#X obj 261 82 hsl 128 15 0 1 0 0 empty empty empty -2 -8 0 10 -262144
-1 -1 0 1;
#X floatatom 278 107 5 0 0 0 - - -, f 5;
#N canvas 52 139 955 573 getIndex 0;
#X obj 300 92 t f b;
#X obj 348 124 array size splicetable;
#X obj 300 208 *;
#X obj 302 259 int;
#X obj 303 298 clip 0 0;
#X floatatom 321 358 5 0 0 0 - - -, f 5;
#X floatatom 245 291 5 0 0 0 - - -, f 5;
#X floatatom 258 334 5 0 0 0 - - -, f 5;
#X obj 303 38 inlet;
#X obj 308 410 outlet;
#X floatatom 268 133 5 0 0 0 - - -, f 5;
#X obj 298 170 + 0;
#X obj 354 175 + 1;
#X connect 0 0 10 0;
#X connect 0 0 11 0;
#X connect 0 1 1 0;
#X connect 1 0 12 0;
#X connect 2 0 3 0;
#X connect 3 0 4 0;
#X connect 3 0 6 0;
#X connect 4 0 5 0;
#X connect 4 0 7 0;
#X connect 4 0 9 0;
#X connect 8 0 0 0;
#X connect 11 0 2 0;
#X connect 12 0 2 1;
#X connect 12 0 4 2;
#X restore 210 147 pd getIndex;
#X obj 182 459 pack 0 0;
#X obj 225 430 r \$0-spliceLength;
#X obj 170 408 r \$0-spliceStart;
#X text 535 120 if splice value is index 0 \, then start is 0 and length
is the splice value (case 1). if splice index is the size of the array
\, then splice is the start point and length is 0 (case 2). otherwise
\, splice is start point and length is calculated from the next splice
in order (case 3).;
#N canvas 9 112 875 642 indexMaxCase 0;
#X obj 442 510 s \$0-spliceLength;
#X obj 249 499 s \$0-spliceStart;
#X obj 325 88 inlet;
#X text 303 15 index max case;
#X floatatom 277 131 5 0 0 0 - - -, f 5;
#X obj 320 289 spigot;
#X obj 351 172 t f b;
#X obj 379 213 array size splicetable;
#X obj 328 128 t f f;
#X floatatom 256 327 5 0 0 0 - - -, f 5;
#X obj 606 440 sel 0;
#X obj 606 501 outlet;
#X obj 604 469 bang;
#X msg 363 406 0;
#X obj 266 414 - 1;
#X floatatom 397 246 5 0 0 0 - - -, f 5;
#X floatatom 337 210 5 0 0 0 - - -, f 5;
#X floatatom 393 286 5 0 0 0 - - -, f 5;
#X obj 246 443 array get splicetable 0 1;
#X obj 349 249 >=;
#X obj 281 372 array size splicetable;
#X obj 317 327 t b b;
#X connect 2 0 4 0;
#X connect 2 0 8 0;
#X connect 5 0 9 0;
#X connect 5 0 21 0;
#X connect 6 0 16 0;
#X connect 6 0 19 0;
#X connect 6 1 7 0;
#X connect 7 0 15 0;
#X connect 7 0 19 1;
#X connect 8 0 5 0;
#X connect 8 1 6 0;
#X connect 10 0 12 0;
#X connect 12 0 11 0;
#X connect 13 0 0 0;
#X connect 14 0 18 0;
#X connect 18 0 1 0;
#X connect 19 0 5 1;
#X connect 19 0 10 0;
#X connect 19 0 17 0;
#X connect 20 0 14 0;
#X connect 21 0 20 0;
#X connect 21 1 13 0;
#X restore 189 313 pd indexMaxCase;
#N canvas 352 139 812 578 indexZeroCase 0;
#X obj 252 334 spigot;
#X obj 331 208 f;
#X obj 325 124 t f f;
#X obj 283 298 expr $f1 == 0;
#X obj 259 167 t b f;
#X obj 251 361 t b f;
#X obj 293 431 s \$0-spliceLength;
#X obj 242 463 s \$0-spliceStart;
#X msg 245 399 0;
#X obj 325 88 inlet;
#X text 307 41 index 0 case;
#X obj 479 423 sel 0;
#X obj 480 481 outlet;
#X obj 478 449 bang;
#X floatatom 345 242 5 0 0 0 - - -, f 5;
#X floatatom 330 329 5 0 0 0 - - -, f 5;
#X obj 288 394 array get splicetable 0 1;
#X connect 0 0 5 0;
#X connect 1 0 0 0;
#X connect 1 0 14 0;
#X connect 2 0 4 0;
#X connect 2 1 1 1;
#X connect 3 0 0 1;
#X connect 3 0 11 0;
#X connect 3 0 15 0;
#X connect 4 0 1 0;
#X connect 4 1 3 0;
#X connect 5 0 8 0;
#X connect 5 1 16 0;
#X connect 8 0 7 0;
#X connect 9 0 2 0;
#X connect 11 0 13 0;
#X connect 13 0 12 0;
#X connect 16 0 6 0;
#X restore 64 243 pd indexZeroCase;
#N canvas 1 257 560 466 generalCase 0;
#X obj 207 53 inlet;
#X obj 132 335 s \$0-spliceStart;
#X obj 269 372 s \$0-spliceLength;
#X obj 207 95 t f f;
#X obj 267 130 t f f;
#X obj 263 313 -;
#X floatatom 294 340 5 0 0 0 - - -, f 5;
#X floatatom 137 114 5 0 0 0 - - -, f 5;
#X obj 293 230 - 1;
#X obj 128 181 - 1;
#X floatatom 306 287 5 0 0 0 - - -, f 5;
#X floatatom 230 193 5 0 0 0 - - -, f 5;
#X obj 291 257 array get splicetable 0 1;
#X obj 270 166 array get splicetable 0 1;
#X obj 129 228 array get splicetable 0 1;
#X connect 0 0 3 0;
#X connect 3 0 7 0;
#X connect 3 0 9 0;
#X connect 3 1 4 0;
#X connect 4 0 13 0;
#X connect 4 1 8 0;
#X connect 5 0 2 0;
#X connect 5 0 6 0;
#X connect 8 0 12 0;
#X connect 9 0 14 0;
#X connect 12 0 5 1;
#X connect 12 0 10 0;
#X connect 13 0 5 0;
#X connect 13 0 11 0;
#X connect 14 0 1 0;
#X restore 300 383 pd generalCase;
#X obj 189 281 f;
#X obj 300 349 f;
#X obj 58 282 bng 15 250 50 0 empty empty empty 17 7 0 10 -262144 -1
-1;
#X obj 188 341 bng 15 250 50 0 empty empty empty 17 7 0 10 -262144
-1 -1;
#X floatatom 248 192 5 0 0 0 - - -, f 5;
#X floatatom 140 438 5 0 0 0 - - -, f 5;
#X floatatom 252 456 10 0 0 0 - - -, f 10;
#X floatatom 261 59 5 0 0 0 - - -, f 5;
#X obj 194 206 t f f f;
#X connect 0 0 6 0;
#X connect 4 0 5 0;
#X connect 4 0 6 0;
#X connect 6 0 18 0;
#X connect 6 0 22 0;
#X connect 7 0 1 0;
#X connect 8 0 7 1;
#X connect 8 0 20 0;
#X connect 9 0 7 0;
#X connect 9 0 19 0;
#X connect 11 0 15 0;
#X connect 11 0 17 0;
#X connect 12 0 14 0;
#X connect 12 0 16 0;
#X connect 14 0 11 0;
#X connect 15 0 13 0;
#X connect 21 0 4 0;
#X connect 22 0 12 0;
#X connect 22 1 14 1;
#X connect 22 2 15 1;
#X restore 344 167 pd locateSplice;
#X text 347 446 list output when splice index located;
#N canvas 252 22 1042 699 arrayAppend 0;
#X obj 314 402 array size splicetable;
#X obj 235 507 array set splicetable;
#X obj 309 356 bng 15 250 50 0 empty empty empty 17 7 0 10 -262144
-1 -1;
#X obj 338 367 bng 15 250 50 0 empty empty empty 17 7 0 10 -262144
-1 -1;
#X floatatom 285 61 5 0 0 0 - - -, f 5;
#X msg 264 395 0;
#X floatatom 369 282 5 0 0 0 - - -, f 5;
#X obj 313 431 t f f;
#X obj 314 380 t b;
#X obj 317 321 sel 1;
#X floatatom 375 320 5 0 0 0 - - -, f 5;
#X obj 317 241 f;
#X obj 318 294 < 0;
#X obj 219 70 inlet;
#X msg 313 181 0;
#X obj 220 581 array get splicetable;
#X obj 217 448 t b b f;
#X obj 235 475 f;
#X obj 218 115 t b f;
#X floatatom 417 524 5 0 0 0 - - -, f 5;
#X msg 384 183 1;
#X obj 314 210 array get splicetable;
#X obj 313 154 t b b;
#X obj 172 523 bng 15 250 50 0 empty empty empty 17 7 0 10 -262144
-1 -1;
#N canvas 293 78 1246 751 sortarray 0;
#X obj 160 89 inlet;
#X obj 298 663 outlet;
#X text 292 692 sorted array;
#X text 161 71 array to sort (as list);
#X obj 886 104 array define \$0-scratch;
#X obj 184 211 array set \$0-scratch;
#X obj 142 362 array min \$0-scratch;
#X obj 72 179 bng 15 250 50 0 empty empty empty 17 7 0 10 -262144 -1
-1;
#X obj 901 171 r \$0-size;
#X obj 886 69 r \$0-size;
#X obj 351 199 list length;
#X obj 352 373 s \$0-size;
#X obj 351 312 pack s 0;
#X obj 350 278 symbol resize;
#X obj 349 242 t b f;
#X obj 1040 504 bng 15 250 50 0 empty empty empty 17 7 0 10 -262144
-1 -1;
#X obj 352 343 list trim;
#X obj 177 425 f;
#X msg 195 254 0;
#X obj 72 204 t b b;
#X obj 183 453 f;
#X obj 116 555 array max \$0-scratch;
#X obj 118 623 array set \$0-scratch;
#X obj 268 453 f;
#X obj 110 333 t b b b b;
#X obj 329 416 r \$0-sizefloat;
#X obj 442 278 s \$0-sizefloat;
#X obj 296 472 ==;
#X obj 331 445 - 1;
#X floatatom 151 405 5 0 0 0 - - -, f 5;
#X floatatom 342 492 5 0 0 0 - - -, f 5;
#X floatatom 202 481 5 0 0 0 - - -, f 5;
#X floatatom 142 602 5 0 0 0 - - -, f 5;
#X floatatom 147 454 5 0 0 0 - - -, f 5;
#X obj 228 416 + 1;
#X obj 1031 619 array get \$0-scratch;
#X obj 1029 647 print scratch;
#X msg 927 242 const 0;
#X obj 927 209 t b;
#X obj 110 303 until;
#X obj 318 549 s \$0-sortdone;
#X obj 140 274 r \$0-sortdone;
#X obj 296 511 sel 1;
#X obj 298 610 list;
#X obj 909 283 array define \$0-sorted;
#X obj 89 667 array get \$0-sorted;
#X obj 135 520 array set \$0-sorted;
#X text 443 41 Make copy of input array. Make new blank array with
size of input array Get the minimum value in copy array and assign
it to the first entry in blank array. Set index in copy array to max
value in copy array Increment index and repeat until index is the same
as length of input array.;
#X obj 1040 552 array get \$0-sorted;
#X obj 1039 585 print sorted;
#X obj 92 590 t b f;
#X obj 156 149 t b l l;
#X connect 0 0 51 0;
#X connect 6 0 29 0;
#X connect 6 0 46 0;
#X connect 6 1 22 1;
#X connect 7 0 19 0;
#X connect 8 0 38 0;
#X connect 8 0 44 0;
#X connect 9 0 4 0;
#X connect 10 0 14 0;
#X connect 12 0 16 0;
#X connect 13 0 12 0;
#X connect 14 0 13 0;
#X connect 14 1 12 1;
#X connect 14 1 26 0;
#X connect 15 0 35 0;
#X connect 15 0 48 0;
#X connect 16 0 11 0;
#X connect 17 0 20 0;
#X connect 17 0 23 1;
#X connect 17 0 33 0;
#X connect 17 0 34 0;
#X connect 18 0 17 1;
#X connect 19 0 39 0;
#X connect 19 1 18 0;
#X connect 20 0 31 0;
#X connect 20 0 46 1;
#X connect 21 0 32 0;
#X connect 21 0 50 0;
#X connect 23 0 27 0;
#X connect 24 0 23 0;
#X connect 24 1 21 0;
#X connect 24 2 6 0;
#X connect 24 3 17 0;
#X connect 25 0 28 0;
#X connect 27 0 30 0;
#X connect 27 0 42 0;
#X connect 28 0 27 1;
#X connect 34 0 17 1;
#X connect 35 0 36 0;
#X connect 37 0 44 0;
#X connect 38 0 37 0;
#X connect 39 0 24 0;
#X connect 41 0 39 1;
#X connect 42 0 40 0;
#X connect 42 0 43 0;
#X connect 43 0 1 0;
#X connect 45 0 43 1;
#X connect 48 0 49 0;
#X connect 50 0 45 0;
#X connect 50 1 22 0;
#X connect 51 0 7 0;
#X connect 51 1 5 0;
#X connect 51 2 10 0;
#X restore 221 611 pd sortarray;
#X obj 220 646 array set splicetable, f 12;
#X obj 365 656 print splices;
#X obj 410 475 s \$0-arraylength;
#X obj 382 453 + 1;
#X connect 0 0 7 0;
#X connect 4 0 18 0;
#X connect 5 0 16 0;
#X connect 7 0 16 0;
#X connect 7 0 19 0;
#X connect 7 1 28 0;
#X connect 8 0 0 0;
#X connect 9 0 2 0;
#X connect 9 0 5 0;
#X connect 9 1 3 0;
#X connect 9 1 8 0;
#X connect 11 0 6 0;
#X connect 11 0 12 0;
#X connect 12 0 9 0;
#X connect 12 0 10 0;
#X connect 13 0 18 0;
#X connect 14 0 21 0;
#X connect 15 0 24 0;
#X connect 16 0 15 0;
#X connect 16 1 17 0;
#X connect 16 2 1 1;
#X connect 17 0 1 0;
#X connect 18 0 22 0;
#X connect 18 1 17 1;
#X connect 20 0 21 1;
#X connect 21 0 11 0;
#X connect 22 0 14 0;
#X connect 22 1 20 0;
#X connect 23 0 15 0;
#X connect 24 0 25 0;
#X connect 24 0 26 0;
#X connect 28 0 27 0;
#X restore 116 209 pd arrayAppend;
#X obj 347 268 list prepend splice;
#X obj 347 310 list trim;
#X text 646 27 splice control;
#X obj 868 219 list length;
#X obj 868 245 t b f;
#X obj 770 154 t l l;
#X obj 769 185 array set splicetable;
#X obj 646 110 route clear set size;
#X obj 915 126 r \$0-arraylength;
#X obj 866 376 print array size;
#X obj 344 125 f;
#X obj 623 195 t b b b;
#X obj 683 155 r initbang;
#X connect 0 0 23 0;
#X connect 3 0 34 0;
#X connect 6 0 31 0;
#X connect 7 0 35 0;
#X connect 10 0 8 0;
#X connect 10 0 33 0;
#X connect 11 0 12 0;
#X connect 12 0 10 0;
#X connect 14 0 8 0;
#X connect 15 0 8 0;
#X connect 16 0 9 0;
#X connect 17 0 20 0;
#X connect 18 0 17 0;
#X connect 19 0 16 0;
#X connect 21 0 24 0;
#X connect 24 0 25 0;
#X connect 25 0 5 0;
#X connect 27 0 28 0;
#X connect 28 0 11 0;
#X connect 28 1 13 0;
#X connect 28 1 12 1;
#X connect 29 0 30 0;
#X connect 29 1 27 0;
#X connect 31 0 35 0;
#X connect 31 1 29 0;
#X connect 31 2 28 0;
#X connect 32 0 28 0;
#X connect 34 0 21 0;
#X connect 35 0 34 0;
#X connect 35 1 14 0;
#X connect 35 2 15 0;
#X connect 36 0 35 0;
#X restore 171 251 pd splices;
#X obj 173 97 bng 15 250 50 0 empty empty make_splice 17 7 0 10 -262144
-1 -1;
#X obj 202 119 r \$0-playpos;
#X obj 172 141 f;
#X obj 317 152 hsl 128 15 0 1 0 0 empty empty organize -2 -8 0 10 -262144
-1 -1 0 1;
#X obj 315 356 f;
#X text 315 414 sample length (ms);
#X obj 342 832 bng 15 250 50 0 empty empty empty 17 7 0 10 -262144
-1 -1;
#X obj 342 861 s eos;
#X obj 337 109 r organize;
#X obj 92 516 r varispeed;
#X obj 200 149 r eos;
#N canvas 166 240 550 382 todo 0;
#X text 98 174 expo bipolar response for varispeed control;
#X text 99 93 gene shift;
#X restore 56 62 pd todo;
#X obj 314 393 s saveReelMeta;
#N canvas 291 41 1351 918 record 0;
#X msg 443 119 stop;
#X msg 393 234 1;
#X msg 458 269 0;
#X obj 398 602 outlet, f 7;
#X obj 399 39 inlet;
#X obj 188 66 inlet~;
#X obj 399 74 route start stop clear;
#X msg 568 144 clear;
#X obj 190 306 tabwrite~ reel;
#X obj 621 594 s saveReelMeta;
#X text 392 626 length of recorded reel in ms;
#X obj 819 557 outlet;
#X text 823 589 record state;
#X obj 597 620 s reelLengthMS;
#N canvas 859 135 636 587 clearReel 0;
#X obj 162 272 array define reel 1.323e+06;
#X msg 151 228 const 0;
#X obj 122 173 t b b;
#X obj 185 198 s clearMeta;
#X obj 209 333 s spliceControl;
#X msg 209 302 clear;
#X msg 102 310 0;
#X obj 113 345 s saveReelMeta;
#X obj 108 380 s reelLengthMS;
#X obj 109 72 inlet;
#X obj 24 277 s recordingNewReel;
#X msg 71 227 1;
#X obj 84 424 array size reel;
#X obj 84 465 s recordLength;
#X floatatom 110 446 10 0 0 0 - - -, f 10;
#X connect 1 0 0 0;
#X connect 2 0 6 0;
#X connect 2 0 11 0;
#X connect 2 0 12 0;
#X connect 2 1 1 0;
#X connect 2 1 3 0;
#X connect 2 1 5 0;
#X connect 5 0 4 0;
#X connect 6 0 7 0;
#X connect 6 0 8 0;
#X connect 9 0 2 0;
#X connect 11 0 10 0;
#X connect 12 0 13 0;
#X connect 12 0 14 0;
#X restore 569 199 pd clearReel;
#N canvas 700 205 450 300 recordCounter 0;
#X obj 139 86 metro 1;
#X obj 139 146 f;
#X msg 175 119 0;
#X obj 176 146 + 1;
#X obj 139 44 inlet;
#X obj 139 213 outlet;
#X obj 264 39 inlet;
#X connect 0 0 1 0;
#X connect 1 0 3 0;
#X connect 1 0 5 0;
#X connect 2 0 1 1;
#X connect 3 0 1 1;
#X connect 4 0 0 0;
#X connect 6 0 2 0;
#X restore 397 351 pd recordCounter;
#X obj 818 521 r \$0-recordState;
#X obj 434 317 s \$0-recordState;
#X obj 595 519 spigot;
#X text 854 41 if recording reel \, then stop at end of buffer and
output reel endpoints as recording proceeds. if recording to splice
\, don't output these things \, start at splice start \, and record
for length of splice;
#X obj 685 378 array size reel;
#X msg 427 518 stop;
#X obj 458 39 r recControl;
#X obj 427 545 s recControl;
#X obj 595 493 f;
#X obj 628 478 r recordingNewReel;
#X obj 610 169 s spliceControl;
#X msg 554 274 0;
#X floatatom 357 398 5 0 0 0 - - -, f 5;
#X floatatom 685 407 10 0 0 0 - - -, f 10;
#X floatatom 655 502 5 0 0 0 - - -, f 5;
#X obj 427 491 sel 1;
#X obj 595 395 bang;
#X obj 621 561 s recordLength;
#X obj 500 491 sel 1;
#X obj 515 421 r recordLength;
#X msg 587 663 0;
#X obj 587 696 s recordStart;
#N canvas 0 22 450 300 recordStartMsg 0;
#X obj 198 55 r recordStart;
#X msg 122 94 start;
#X obj 124 182 list trim;
#X obj 123 49 inlet;
#X obj 124 227 outlet;
#X obj 123 140 list append;
#X obj 198 82 / 1000;
#X obj 198 106 *;
#X obj 306 72 samplerate~;
#X obj 376 45 bng 15 250 50 0 empty empty empty 17 7 0 10 -262144 -1
-1;
#X obj 305 44 r initbang;
#X connect 0 0 6 0;
#X connect 1 0 5 0;
#X connect 2 0 4 0;
#X connect 3 0 1 0;
#X connect 5 0 2 0;
#X connect 6 0 7 0;
#X connect 7 0 5 1;
#X connect 8 0 7 1;
#X connect 9 0 8 0;
#X connect 10 0 8 0;
#X restore 394 169 pd recordStartMsg;
#X floatatom 534 451 5 0 0 0 - - -, f 5;
#X floatatom 624 542 5 0 0 0 - - -, f 5;
#X obj 538 323 r recordingNewReel;
#X obj 481 144 print;
#N canvas 0 22 450 300 not 0;
#X obj 118 104 expr abs(1 - $f1);
#X obj 117 37 inlet;
#X obj 126 193 outlet;
#X connect 0 0 2 0;
#X connect 1 0 0 0;
#X restore 537 354 pd not;
#X obj 499 388 spigot;
#X floatatom 560 382 5 0 0 0 - - -, f 5;
#X obj 500 464 >=;
#X obj 427 464 >=;
#X floatatom 590 347 5 0 0 0 - - -, f 5;
#X obj 458 234 s recordingNewReel;
#X msg 458 199 0;
#X obj 685 350 r initbang;
#X connect 0 0 8 0;
#X connect 0 0 2 0;
#X connect 0 0 27 0;
#X connect 0 0 42 0;
#X connect 0 0 50 0;
#X connect 1 0 15 0;
#X connect 1 0 17 0;
#X connect 2 0 15 0;
#X connect 2 0 17 0;
#X connect 2 0 32 0;
#X connect 2 0 15 1;
#X connect 4 0 6 0;
#X connect 5 0 8 0;
#X connect 6 0 38 0;
#X connect 6 1 0 0;
#X connect 6 2 7 0;
#X connect 7 0 14 0;
#X connect 7 0 26 0;
#X connect 7 0 27 0;
#X connect 7 0 2 0;
#X connect 15 0 3 0;
#X connect 15 0 24 1;
#X connect 15 0 28 0;
#X connect 15 0 44 0;
#X connect 15 0 47 0;
#X connect 16 0 11 0;
#X connect 18 0 9 0;
#X connect 18 0 13 0;
#X connect 18 0 33 0;
#X connect 18 0 36 0;
#X connect 18 0 40 0;
#X connect 20 0 29 0;
#X connect 20 0 47 1;
#X connect 21 0 23 0;
#X connect 22 0 6 0;
#X connect 24 0 18 0;
#X connect 25 0 18 1;
#X connect 25 0 30 0;
#X connect 27 0 15 1;
#X connect 31 0 21 0;
#X connect 32 0 24 0;
#X connect 34 0 21 0;
#X connect 35 0 39 0;
#X connect 35 0 46 1;
#X connect 36 0 37 0;
#X connect 38 0 8 0;
#X connect 38 0 1 0;
#X connect 41 0 43 0;
#X connect 41 0 48 0;
#X connect 43 0 44 1;
#X connect 43 0 45 0;
#X connect 44 0 46 0;
#X connect 46 0 34 0;
#X connect 47 0 31 0;
#X connect 50 0 49 0;
#X connect 51 0 20 0;
#X restore 548 302 pd record;
#X msg 698 261 clear;
#X obj 631 353 tgl 15 0 empty empty empty 17 7 0 10 -262144 -1 -1 0
1;
#X floatatom 256 393 5 0 0 0 - - -, f 5;
#N canvas 0 22 450 300 packReelLength 0;
#X obj 178 32 inlet;
#X obj 182 155 pack s f;
#X obj 189 261 outlet;
#X obj 180 117 symbol reel;
#X obj 180 70 t b f;
#X obj 183 200 list trim;
#X connect 0 0 4 0;
#X connect 1 0 5 0;
#X connect 3 0 1 0;
#X connect 4 0 3 0;
#X connect 4 1 1 1;
#X connect 5 0 2 0;
#X restore 315 451 pd packReelLength;
#N canvas 204 22 1039 699 windowLogic 0;
#X obj 245 134 route reel splice gene;
#X obj 245 33 inlet;
#X msg 369 22 reel 2000 \; length of reel;
#X obj 303 605 outlet;
#X obj 395 606 outlet;
#X text 302 635 start pos;
#X text 398 632 length;
#X text 173 599 window outlets;
#X text 491 32 clear splice and set upper/lower bounds to 0 \, 2000
;
#X text 546 215 output is a start position and length. reel is the
lowest priority \, but clears out any splice that's set. splice is
higher priority than reel. gene is the highest priority and is based
on the bounds calculated by splice or reel.;
#X obj 396 563 r \$0-length;
#X obj 303 561 r \$0-startPos;
#N canvas 0 22 450 300 reel 0;
#X obj 165 99 t b f, f 6;
#X obj 164 56 inlet;
#X obj 112 212 s \$0-startPos;
#X msg 112 171 0;
#X obj 217 211 s \$0-length;
#X obj 231 146 s \$0-spliceLength;
#X obj 230 176 s \$0-reelLength;
#X obj 262 259 s recordLength;
#X obj 112 242 s recordStart;
#X connect 0 0 3 0;
#X connect 0 1 4 0;
#X connect 0 1 5 0;
#X connect 0 1 6 0;
#X connect 0 1 7 0;
#X connect 1 0 0 0;
#X connect 3 0 2 0;
#X connect 3 0 8 0;
#X restore 245 208 pd reel;
#N canvas 79 59 735 638 splice 0;
#X obj 69 12 inlet;
#X obj 108 68 unpack f f;
#X obj 86 534 s \$0-startPos;
#X obj 197 524 s \$0-length;
#X obj 288 527 s \$0-spliceLength;
#X obj 197 468 t f f;
#X obj 152 342 != 0;
#X obj 151 315 t f f;
#X obj 196 446 f;
#X obj 152 365 sel 1;
#X obj 94 302 t f f;
#X obj 440 402 f;
#X obj 405 450 -;
#X obj 404 401 f;
#X floatatom 349 428 5 0 0 0 - - -, f 5;
#X floatatom 449 429 5 0 0 0 - - -, f 5;
#X floatatom 410 498 10 0 0 0 - - -, f 10;
#X floatatom 504 349 5 0 0 0 - - -, f 5;
#X obj 188 397 bng 15 250 50 0 empty empty empty 17 7 0 10 -262144
-1 -1;
#X obj 465 324 r \$0-reelLength;
#X msg 49 302 0;
#X obj 54 254 moses 0;
#X obj 144 293 bng 15 250 50 0 empty empty empty 17 7 0 10 -262144
-1 -1;
#X obj 22 279 bng 15 250 50 0 empty empty empty 17 7 0 10 -262144 -1
-1;
#X obj 100 278 bng 15 250 50 0 empty empty empty 17 7 0 10 -262144
-1 -1;
#X floatatom 181 241 5 0 0 0 - - -, f 5;
#X obj 151 261 moses 0.1;
#X obj 413 349 t b b;
#X obj 411 313 bang;
#X obj 375 327 bng 15 250 50 0 empty empty empty 17 7 0 10 -262144
-1 -1;
#X obj 463 363 bng 15 250 50 0 empty empty empty 17 7 0 10 -262144
-1 -1;
#X obj 373 371 bng 15 250 50 0 empty empty empty 17 7 0 10 -262144
-1 -1;
#X obj 413 425 bng 15 250 50 0 empty empty empty 17 7 0 10 -262144
-1 -1;
#X obj 424 475 bng 15 250 50 0 empty empty empty 17 7 0 10 -262144
-1 -1;
#X obj 176 153 f;
#X obj 99 153 f;
#X floatatom 108 342 5 0 0 0 - - -, f 5;
#X obj 65 42 t b b l;
#X obj 211 591 outlet;
#X obj 45 484 f;
#X obj 210 561 bang;
#X obj 67 566 s \$0-spliceStart;
#X obj 49 593 s recordStart;
#X obj 295 557 s recordLength;
#X floatatom 98 418 5 0 0 0 - - -, f 5;
#X connect 0 0 37 0;
#X connect 1 0 35 1;
#X connect 1 1 34 1;
#X connect 5 0 3 0;
#X connect 5 0 40 0;
#X connect 5 1 4 0;
#X connect 5 1 43 0;
#X connect 6 0 9 0;
#X connect 7 0 6 0;
#X connect 7 1 8 1;
#X connect 8 0 5 0;
#X connect 9 0 8 0;
#X connect 9 1 18 0;
#X connect 9 1 27 0;
#X connect 9 1 12 1;
#X connect 10 0 42 0;
#X connect 10 0 44 0;
#X connect 10 1 36 0;
#X connect 10 1 11 0;
#X connect 11 0 12 1;
#X connect 11 0 15 0;
#X connect 12 0 5 0;
#X connect 12 0 16 0;
#X connect 12 0 33 0;
#X connect 13 0 12 0;
#X connect 13 0 14 0;
#X connect 13 0 32 0;
#X connect 19 0 13 1;
#X connect 19 0 17 0;
#X connect 19 0 30 0;
#X connect 20 0 39 0;
#X connect 21 0 20 0;
#X connect 21 0 23 0;
#X connect 21 1 10 0;
#X connect 21 1 24 0;
#X connect 26 0 28 0;
#X connect 26 1 7 0;
#X connect 26 1 22 0;
#X connect 27 0 13 0;
#X connect 27 0 31 0;
#X connect 27 1 11 0;
#X connect 28 0 27 0;
#X connect 28 0 29 0;
#X connect 34 0 26 0;
#X connect 34 0 25 0;
#X connect 35 0 21 0;
#X connect 37 0 34 0;
#X connect 37 1 35 0;
#X connect 37 2 1 0;
#X connect 39 0 2 0;
#X connect 39 0 41 0;
#X connect 39 0 42 0;
#X connect 40 0 38 0;
#X restore 290 251 pd splice;
#N canvas 0 23 481 375 gene 0;
#X obj 158 57 unpack f f;
#X obj 157 3 inlet;
#X obj 271 73 r \$0-spliceLength;
#X obj 184 109 t b f;
#X text 91 79 divisions;
#X text 179 80 index;
#X obj 127 305 s \$0-startPos;
#X obj 271 311 s \$0-length;
#X obj 187 137 f;
#X obj 163 195 *;
#X floatatom 174 221 5 0 0 0 - - -, f 5;
#X obj 294 196 r \$0-spliceStart;
#X obj 145 244 +;
#X obj 154 83 f;
#X obj 228 84 f;
#X obj 233 59 t b b;
#X floatatom 148 273 5 0 0 0 - - -, f 5;
#X floatatom 283 280 5 0 0 0 - - -, f 5;
#X obj 148 341 outlet;
#X obj 270 346 outlet;
#X obj 157 33 route list bang;
#X obj 196 165 /;
#X connect 0 0 13 0;
#X connect 0 1 14 0;
#X connect 1 0 20 0;
#X connect 2 0 8 1;
#X connect 3 0 8 0;
#X connect 3 1 21 1;
#X connect 8 0 21 0;
#X connect 9 0 10 0;
#X connect 9 0 12 0;
#X connect 11 0 12 1;
#X connect 12 0 6 0;
#X connect 12 0 16 0;
#X connect 12 0 18 0;
#X connect 13 0 3 0;
#X connect 14 0 9 1;
#X connect 15 0 13 0;
#X connect 20 0 0 0;
#X connect 20 1 15 0;
#X connect 21 0 7 0;
#X connect 21 0 9 0;
#X connect 21 0 17 0;
#X connect 21 0 19 0;
#X restore 373 361 pd gene;
#X text 559 120 calculate start pos and length based on number of divisions
and index;
#X floatatom 325 583 7 0 0 0 - - -, f 7;
#X floatatom 414 586 5 0 0 0 - - -, f 5;
#X text 562 101 divisions and index of gene;
#X msg 368 99 gene 3 0;
#X msg 368 59 splice 300 200 \; position and length of splice;
#X text 562 58 set bounds to start pos and length in ms;
#X obj 287 179 t b l;
#X obj 316 213 bng 15 250 50 0 empty empty empty 17 7 0 10 -262144
-1 -1;
#X msg 290 278 bang;
#X connect 0 0 12 0;
#X connect 0 1 22 0;
#X connect 0 2 14 0;
#X connect 1 0 0 0;
#X connect 2 0 0 0;
#X connect 10 0 4 0;
#X connect 10 0 17 0;
#X connect 11 0 3 0;
#X connect 11 0 16 0;
#X connect 13 0 24 0;
#X connect 19 0 0 0;
#X connect 20 0 0 0;
#X connect 22 1 13 0;
#X connect 22 1 23 0;
#X connect 24 0 14 0;
#X restore 252 606 pd windowLogic;
#X floatatom 270 634 5 0 0 0 - - -, f 5;
#X floatatom 349 634 10 0 0 0 - - -, f 10;
#X obj 315 318 r reelLengthMS;
#X obj 228 177 r spliceControl;
#X msg 261 225 clear;
#X floatatom 314 647 5 0 0 0 - - -, f 5;
#X obj 1105 102 loadbang;
#X obj 200 180 f;
#X obj 288 92 t b b;
#X obj 288 67 delay 1000;
#X obj 449 489 hsl 128 15 0 1 0 0 empty empty gene_size -2 -8 0 10
-262144 -1 -1 0 1;
#X obj 530 465 hsl 128 15 0 1 0 0 empty empty slide -2 -8 0 10 -262144
-1 -1 0 1;
#N canvas 0 22 871 500 genes 0;
#X obj 132 32 inlet;
#X obj 251 29 inlet;
#N canvas 0 22 652 487 geneSize 0;
#X obj 222 44 inlet;
#X text 289 46 float 0-1 \, larger for smaller divisions;
#X obj 221 131 int;
#X floatatom 259 186 5 0 0 0 - - -, f 5;
#X obj 218 275 outlet;
#X obj 221 205 + 1;
#X obj 223 96 * 11;
#X connect 0 0 6 0;
#X connect 2 0 3 0;
#X connect 2 0 5 0;
#X connect 5 0 4 0;
#X connect 6 0 2 0;
#X restore 306 73 pd geneSize;
#X floatatom 193 253 5 0 0 0 - - -, f 5;
#X floatatom 314 231 5 0 0 0 - - -, f 5;
#X obj 148 311 pack 0 0;
#X obj 193 286 f;
#X obj 148 275 f;
#X obj 148 239 t f b;
#X obj 193 217 t b f;
#X obj 148 347 list prepend gene;
#X obj 148 419 outlet;
#X obj 314 165 f;
#X obj 314 132 t b f;
#N canvas 0 22 450 300 slide 0;
#X obj 187 67 inlet;
#X obj 137 274 outlet;
#X obj 115 69 inlet;
#X text 115 48 0-1;
#X text 182 48 gene size;
#X obj 138 121 *;
#X obj 138 151 int;
#X obj 185 95 - 1;
#X connect 0 0 7 0;
#X connect 2 0 5 0;
#X connect 5 0 6 0;
#X connect 6 0 1 0;
#X connect 7 0 5 1;
#X restore 314 198 pd slide;
#X obj 148 383 list trim;
#X connect 0 0 2 0;
#X connect 1 0 12 0;
#X connect 2 0 3 0;
#X connect 2 0 8 0;
#X connect 2 0 13 0;
#X connect 5 0 10 0;
#X connect 6 0 5 1;
#X connect 7 0 5 0;
#X connect 8 0 7 0;
#X connect 8 1 6 0;
#X connect 9 0 7 0;
#X connect 9 1 6 0;
#X connect 10 0 15 0;
#X connect 12 0 14 0;
#X connect 13 0 12 0;
#X connect 13 1 14 1;
#X connect 14 0 4 0;
#X connect 14 0 9 0;
#X connect 15 0 11 0;
#X restore 445 527 pd genes;
#X obj 548 109 *~;
#X obj 565 65 hsl 128 15 0 10 0 0 empty empty input_gain -2 -8 0 10
-262144 -1 -1 0 1;
#X floatatom 548 351 10 0 0 0 - - -, f 10;
#X obj 212 727 s~ processed;
#X obj 892 460 hsl 128 15 0 1 0 0 empty empty sound_on_sound -2 -8
0 10 -262144 -1 -1 0 1;
#X obj 890 491 s sos;
#N canvas 0 22 450 300 crossfade~ 0;
#X obj 97 63 inlet~;
#X obj 176 63 inlet~;
#X obj 255 63 inlet;
#X obj 173 257 outlet~;
#X obj 112 134 *~;
#X obj 133 102 expr~ 1 - $v1;
#X obj 175 134 *~;
#X connect 0 0 4 0;
#X connect 1 0 6 0;
#X connect 2 0 5 0;
#X connect 2 0 6 1;
#X connect 4 0 3 0;
#X connect 5 0 4 1;
#X connect 6 0 3 0;
#X restore 212 807 pd crossfade~;
#X obj 276 767 r sos;
#X obj 563 138 s~ input;
#X obj 212 767 r~ input;
#N canvas 0 22 450 300 crossfade~ 0;
#X obj 97 63 inlet~;
#X obj 176 63 inlet~;
#X obj 255 63 inlet;
#X obj 173 257 outlet~;
#X obj 112 134 *~;
#X obj 133 102 expr~ 1 - $v1;
#X obj 175 134 *~;
#X connect 0 0 4 0;
#X connect 1 0 6 0;
#X connect 2 0 5 0;
#X connect 2 0 6 1;
#X connect 4 0 3 0;
#X connect 5 0 4 1;
#X connect 6 0 3 0;
#X restore 548 209 pd crossfade~;
#X obj 623 186 r sos;
#X obj 584 161 r~ processed;
#X obj 449 366 r eos;
#X obj 665 353 s recordState;
#X obj 527 417 r slide;
#X obj 446 451 r geneSize;
#X obj 173 73 r makeSplice;
#X obj 261 201 r clearSplices;
#X obj 650 30 r inputGain;
#N canvas 177 47 1291 957 routing 1;
#X obj 280 136 s inputGain;
#X text 73 28 adc in 1-6;
#X obj 280 85 clip 0 4095;
#X obj 280 54 r adc1;
#X obj 363 85 clip 0 4095;
#X obj 363 54 r adc2;
#X obj 363 136 s varispeed;
#X obj 443 85 clip 0 4095;
#X obj 443 54 r adc3;
#X obj 443 136 s sos;
#X obj 281 212 clip 0 4095;
#X obj 281 181 r adc4;
#X obj 281 265 s organize;
#X obj 364 212 clip 0 4095;
#X obj 364 181 r adc5;
#X obj 364 265 s slide;
#X obj 443 212 clip 0 4095;
#X obj 443 181 r adc6;
#X obj 443 266 s geneSize;
#X obj 443 240 / 4095;
#X obj 364 239 / 4095;
#X obj 281 239 / 4095;
#X obj 444 111 / 4095;
#X obj 363 110 / 4095;
#X obj 280 110 / 4095;
#X obj 50 163 terminal_tedium_adc;
#X obj 50 188 s adc1;
#X obj 63 211 s adc2;
#X obj 91 255 s adc4;
#X obj 105 279 s adc5;
#X obj 77 232 s adc3;
#X obj 120 303 s adc6;
#X msg 49 83 open;
#X obj 49 59 r initbang;
#X msg 105 82 open adc;
#X obj 25 116 metro 10;
#X msg 105 130 smooth 4;
#X msg 105 106 deadband 2;
#X obj 986 117 tedium_output 12;
#X obj 986 155 tedium_output 16;
#X obj 942 222 tedium_input 4;
#X obj 1001 461 tedium_input 2;
#X obj 1111 461 tedium_input 3;
#X text 995 13 digital outs;
#X text 940 195 digital inputs;
#X obj 986 36 r eos;
#X obj 1100 259 f;
#X obj 1135 259 + 1;
#X obj 1100 282 % 2;
#X floatatom 1109 307 5 0 0 0 - - -, f 5;
#X obj 1100 329 sel 1;
#X obj 1100 361 s recStart;
#X obj 1127 388 bang;
#X obj 1127 413 s recStop;
#X obj 941 307 s playControl;
#X obj 941 251 threshold~ 0.5 0 0.5 0;
#X msg 941 279 1;
#X msg 1055 278 0;
#X obj 1001 521 s makeSplice;
#X msg 986 68 1;
#X obj 1018 69 delay 20;
#X msg 1019 93 0;
#X obj 1024 494 print input 2;
#X connect 2 0 24 0;
#X connect 3 0 2 0;
#X connect 4 0 23 0;
#X connect 5 0 4 0;
#X connect 7 0 22 0;
#X connect 8 0 7 0;
#X connect 10 0 21 0;
#X connect 11 0 10 0;
#X connect 13 0 20 0;
#X connect 14 0 13 0;
#X connect 16 0 19 0;
#X connect 17 0 16 0;
#X connect 19 0 18 0;
#X connect 20 0 15 0;
#X connect 21 0 12 0;
#X connect 22 0 9 0;
#X connect 23 0 6 0;
#X connect 24 0 0 0;
#X connect 25 0 26 0;
#X connect 25 1 27 0;
#X connect 25 2 30 0;
#X connect 25 3 28 0;
#X connect 25 4 29 0;
#X connect 25 5 31 0;
#X connect 32 0 25 0;
#X connect 33 0 32 0;
#X connect 33 0 34 0;
#X connect 33 0 35 0;
#X connect 35 0 25 0;
#X connect 36 0 25 0;
#X connect 37 0 25 0;
#X connect 40 0 55 0;
#X connect 41 0 58 0;
#X connect 45 0 59 0;
#X connect 45 0 60 0;
#X connect 46 0 47 0;
#X connect 46 0 48 0;
#X connect 47 0 46 1;
#X connect 48 0 49 0;
#X connect 48 0 50 0;
#X connect 50 0 51 0;
#X connect 50 1 52 0;
#X connect 52 0 53 0;
#X connect 55 0 56 0;
#X connect 55 1 57 0;
#X connect 56 0 54 0;
#X connect 57 0 54 0;
#X connect 59 0 38 0;
#X connect 60 0 61 0;
#X connect 61 0 38 0;
#X restore 1125 482 pd routing;
#X obj 212 926 dac~;
#X obj 212 886 *~ 1;
#X obj 505 28 adc~;
#X obj 505 63 *~ 1;
#X obj 1216 156 s initbang;
#X obj 288 42 r initbang;
#X obj 562 30 r initbang;
#X obj 448 395 r initbang;
#X obj 62 596 r initbang;
#X obj 69 619 r playControl;
#X obj 1105 132 delay 1000;
#X msg 1105 162 \; pd dsp 1 \;;
#X obj 599 233 r recStart;
#X obj 653 210 r recStop;
#X obj 698 235 r recClear;
#X obj 1017 293 r saveReelMeta;
#N canvas 217 22 975 699 persistReel 0;
#X obj 367 91 inlet;
#X text 312 65 takes length of current reel in ms;
#X obj 355 162 pack 0;
#X obj 340 371 textfile;
#X obj 358 289 list prepend add;
#X obj 358 320 list trim;
#X obj 568 150 bng 15 250 50 0 empty empty empty 17 7 0 10 -262144
-1 -1;
#X text 239 32 reads and outputs reel length;
#X obj 621 359 soundfiler;
#X msg 407 161 clear;
#X obj 363 126 t f b;
#X obj 573 88 inlet;
#X text 575 64 bang to clear reel meta;
#X obj 598 173 metro 30000;
#X obj 598 148 delay 30000;
#X obj 206 233 t b b b;
#X msg 227 289 rewind;
#X msg 205 314 bang;
#X obj 354 401 print load reel length;
#X obj 336 526 s reelLengthMS;
#X obj 375 492 s recordingNewReel;
#X obj 389 468 print recording new reel;
#X obj 376 441 < 10;
#X obj 202 193 delay 1000;
#X msg 726 557 1;
#X obj 727 587 s recordingNewReel;
#X obj 725 526 r initbang;
#X obj 599 126 r initbang;
#X obj 203 161 r initbang;
#X obj 611 199 r initbang;
#X msg 719 310 write -wave ./reel.wav reel;
#X msg 613 246 read ./reel.wav reel;
#X msg 431 242 write ./reelmeta.txt;
#X msg 259 264 read ./reelmeta.txt;
#X connect 0 0 10 0;
#X connect 2 0 4 0;
#X connect 3 0 18 0;
#X connect 3 0 19 0;
#X connect 3 0 22 0;
#X connect 4 0 5 0;
#X connect 5 0 3 0;
#X connect 6 0 13 0;
#X connect 9 0 3 0;
#X connect 10 0 2 0;
#X connect 10 1 9 0;
#X connect 11 0 9 0;
#X connect 13 0 32 0;
#X connect 13 0 30 0;
#X connect 14 0 13 0;
#X connect 15 0 17 0;
#X connect 15 1 16 0;
#X connect 15 2 33 0;
#X connect 16 0 3 0;
#X connect 17 0 3 0;
#X connect 22 0 20 0;
#X connect 22 0 21 0;
#X connect 23 0 15 0;
#X connect 24 0 25 0;
#X connect 26 0 24 0;
#X connect 27 0 14 0;
#X connect 28 0 23 0;
#X connect 29 0 31 0;
#X connect 30 0 8 0;
#X connect 31 0 8 0;
#X connect 32 0 3 0;
#X connect 33 0 3 0;
#X restore 1017 334 pd persistReel;
#X obj 1127 293 r clearMeta;
#N canvas 222 82 853 672 persistSplices 0;
#X obj 117 43 inlet;
#X obj 202 533 textfile;
#X obj 225 328 array get splicetable;
#X msg 254 301 clear;
#X obj 200 227 bng 15 250 50 0 empty empty empty 17 7 0 10 -262144
-1 -1;
#X obj 200 255 t b b b b;
#X obj 196 432 list trim;
#X obj 317 413 bng 15 250 50 0 empty empty empty 17 7 0 10 -262144
-1 -1;
#X msg 293 118 save;
#X msg 58 95 load;
#X obj 293 95 metro 30000;
#X obj 196 173 route save load clear;
#X obj 261 376 print splices to save;
#X obj 293 73 delay 30000;
#X msg 298 461 bang;
#X msg 298 480 rewind;
#X obj 298 442 t b b b;
#X obj 94 616 print load splices;
#X obj 203 554 list;
#X obj 566 219 bng 15 250 50 0 empty empty empty 17 7 0 10 -262144
-1 -1;
#X obj 566 255 array get splicetable;
#X obj 566 331 print splicetable;
#X obj 566 293 list;
#X obj 237 636 s spliceControl;
#X obj 237 595 list prepend set;
#X obj 237 615 list trim;
#X obj 196 413 list prepend add;
#X obj 58 65 r initbang;
#X obj 293 43 r initbang;
#X msg 338 503 read ./splices.txt;
#X msg 133 376 write ./splices.txt;
#X connect 0 0 11 0;
#X connect 1 0 18 0;
#X connect 2 0 12 0;
#X connect 2 0 26 0;
#X connect 3 0 1 0;
#X connect 4 0 5 0;
#X connect 5 0 30 0;
#X connect 5 2 2 0;
#X connect 5 3 3 0;
#X connect 6 0 1 0;
#X connect 7 0 16 0;
#X connect 8 0 11 0;
#X connect 9 0 11 0;
#X connect 10 0 8 0;
#X connect 11 0 4 0;
#X connect 11 1 7 0;
#X connect 11 2 3 0;
#X connect 13 0 10 0;
#X connect 14 0 1 0;
#X connect 15 0 1 0;
#X connect 16 0 14 0;
#X connect 16 1 15 0;
#X connect 16 2 29 0;
#X connect 18 0 17 0;
#X connect 18 0 24 0;
#X connect 19 0 20 0;
#X connect 20 0 22 0;
#X connect 22 0 21 0;
#X connect 24 0 25 0;
#X connect 25 0 23 0;
#X connect 26 0 6 0;
#X connect 27 0 9 0;
#X connect 28 0 13 0;
#X connect 29 0 1 0;
#X connect 30 0 1 0;
#X restore 895 334 pd persistSplices;
#X obj 895 294 r spliceControl;
#X obj 417 26 osc~ 220;
#X connect 0 0 19 1;
#X connect 1 0 19 1;
#X connect 2 0 41 0;
#X connect 2 0 44 1;
#X connect 2 3 12 0;
#X connect 3 0 2 1;
#X connect 4 0 2 0;
#X connect 5 0 24 0;
#X connect 6 0 8 0;
#X connect 7 0 8 1;
#X connect 8 0 5 0;
#X connect 9 0 32 1;
#X connect 10 0 18 0;
#X connect 10 0 22 0;
#X connect 10 0 23 0;
#X connect 12 0 13 0;
#X connect 14 0 9 0;
#X connect 15 0 3 0;
#X connect 16 0 32 0;
#X connect 19 0 40 0;
#X connect 19 1 21 0;
#X connect 19 1 52 0;
#X connect 20 0 19 1;
#X connect 23 0 24 0;
#X connect 24 0 2 2;
#X connect 24 0 25 0;
#X connect 24 1 2 3;
#X connect 24 1 26 0;
#X connect 27 0 10 0;
#X connect 28 0 5 2;
#X connect 29 0 5 2;
#X connect 30 0 2 3;
#X connect 31 0 69 0;
#X connect 32 0 5 1;
#X connect 33 0 32 0;
#X connect 33 1 9 0;
#X connect 34 0 33 0;
#X connect 35 0 37 0;
#X connect 36 0 37 1;
#X connect 37 0 24 0;
#X connect 38 0 46 0;
#X connect 38 0 48 0;
#X connect 39 0 38 1;
#X connect 42 0 43 0;
#X connect 44 0 60 0;
#X connect 45 0 44 2;
#X connect 47 0 44 0;
#X connect 48 0 19 0;
#X connect 49 0 48 2;
#X connect 50 0 48 1;
#X connect 51 0 36 0;
#X connect 51 0 35 0;
#X connect 53 0 36 0;
#X connect 54 0 35 0;
#X connect 55 0 6 0;
#X connect 56 0 29 0;
#X connect 57 0 39 0;
#X connect 60 0 59 0;
#X connect 60 0 59 1;
#X connect 61 0 62 0;
#X connect 61 1 62 0;
#X connect 62 0 38 0;
#X connect 64 0 34 0;
#X connect 65 0 39 0;
#X connect 66 0 36 0;
#X connect 66 0 35 0;
#X connect 67 0 4 0;
#X connect 68 0 4 0;
#X connect 69 0 70 0;
#X connect 69 0 63 0;
#X connect 71 0 0 0;
#X connect 72 0 1 0;
#X connect 73 0 20 0;
#X connect 74 0 75 0;
#X connect 76 0 75 1;
#X connect 78 0 77 0;
#X connect 79 0 62 0;
