#N canvas 239 40 1386 984 10;
#X msg 637 254 start;
#X msg 691 255 stop;
#N canvas 150 59 1280 699 splices 0;
#X obj 113 99 inlet;
#X text 109 71 integer to add splice;
#X text 33 22 splices are time measurements in ms;
#X obj 344 83 inlet;
#X text 338 62 float 0-1 to locate a splice;
#X obj 350 418 outlet;
#X obj 643 51 inlet;
#X obj 657 156 bng 15 250 50 0 empty empty empty 17 7 0 10 -262144
-1 -1;
#X obj 720 419 array define splicetable;
#X obj 110 360 s \$0-splicecount;
#X obj 868 323 list trim;
#X msg 868 271 symbol resize;
#X obj 868 297 pack s 0;
#X obj 887 271 print newsize;
#X msg 614 280 const -1;
#X msg 692 277 resize 1;
#X obj 110 334 array size splicetable;
#X obj 111 444 array get splicetable;
#X obj 111 411 bng 15 250 50 0 empty empty empty 17 7 0 10 -262144
-1 -1;
#X obj 110 310 bng 15 250 50 0 empty empty empty 17 7 0 10 -262144
-1 -1;
#X obj 111 479 print splicetable;
#N canvas 277 61 1021 565 locateSplice 0;
#X obj 211 43 inlet;
#X obj 186 490 outlet;
#X text 292 484 list output when splice index located;
#X text 288 38 float 0-1 to locate a splice;
#X obj 261 82 hsl 128 15 0 1 0 0 empty empty empty -2 -8 0 10 -262144
-1 -1 0 1;
#X floatatom 278 107 5 0 0 0 - - -, f 5;
#N canvas 52 139 955 573 getIndex 0;
#X obj 300 92 t f b;
#X obj 348 124 array size splicetable;
#X obj 300 208 *;
#X obj 302 259 int;
#X obj 303 298 clip 0 0;
#X floatatom 321 358 5 0 0 0 - - -, f 5;
#X floatatom 245 291 5 0 0 0 - - -, f 5;
#X floatatom 258 334 5 0 0 0 - - -, f 5;
#X obj 303 38 inlet;
#X obj 308 410 outlet;
#X floatatom 268 133 5 0 0 0 - - -, f 5;
#X obj 298 170 + 0;
#X obj 354 175 + 1;
#X connect 0 0 10 0;
#X connect 0 0 11 0;
#X connect 0 1 1 0;
#X connect 1 0 12 0;
#X connect 2 0 3 0;
#X connect 3 0 4 0;
#X connect 3 0 6 0;
#X connect 4 0 5 0;
#X connect 4 0 7 0;
#X connect 4 0 9 0;
#X connect 8 0 0 0;
#X connect 11 0 2 0;
#X connect 12 0 2 1;
#X connect 12 0 4 2;
#X restore 210 147 pd getIndex;
#X obj 182 459 pack 0 0;
#X obj 225 430 r \$0-spliceLength;
#X obj 170 408 r \$0-spliceStart;
#X text 535 120 if splice value is index 0 \, then start is 0 and length
is the splice value (case 1). if splice index is the size of the array
\, then splice is the start point and length is 0 (case 2). otherwise
\, splice is start point and length is calculated from the next splice
in order (case 3).;
#N canvas 9 112 875 642 indexMaxCase 0;
#X obj 442 510 s \$0-spliceLength;
#X obj 249 499 s \$0-spliceStart;
#X obj 325 88 inlet;
#X text 303 15 index max case;
#X floatatom 277 131 5 0 0 0 - - -, f 5;
#X obj 320 289 spigot;
#X obj 351 172 t f b;
#X obj 379 213 array size splicetable;
#X obj 328 128 t f f;
#X floatatom 256 327 5 0 0 0 - - -, f 5;
#X obj 606 440 sel 0;
#X obj 606 501 outlet;
#X obj 604 469 bang;
#X msg 363 406 0;
#X obj 266 414 - 1;
#X floatatom 397 246 5 0 0 0 - - -, f 5;
#X floatatom 337 210 5 0 0 0 - - -, f 5;
#X floatatom 393 286 5 0 0 0 - - -, f 5;
#X obj 246 443 array get splicetable 0 1;
#X obj 349 249 >=;
#X obj 281 372 array size splicetable;
#X obj 317 327 t b b;
#X connect 2 0 4 0;
#X connect 2 0 8 0;
#X connect 5 0 9 0;
#X connect 5 0 21 0;
#X connect 6 0 16 0;
#X connect 6 0 19 0;
#X connect 6 1 7 0;
#X connect 7 0 15 0;
#X connect 7 0 19 1;
#X connect 8 0 5 0;
#X connect 8 1 6 0;
#X connect 10 0 12 0;
#X connect 12 0 11 0;
#X connect 13 0 0 0;
#X connect 14 0 18 0;
#X connect 18 0 1 0;
#X connect 19 0 5 1;
#X connect 19 0 10 0;
#X connect 19 0 17 0;
#X connect 20 0 14 0;
#X connect 21 0 20 0;
#X connect 21 1 13 0;
#X restore 189 313 pd indexMaxCase;
#N canvas 352 139 812 578 indexZeroCase 0;
#X obj 252 334 spigot;
#X obj 331 208 f;
#X obj 325 124 t f f;
#X obj 283 298 expr $f1 == 0;
#X obj 259 167 t b f;
#X obj 251 361 t b f;
#X obj 293 431 s \$0-spliceLength;
#X obj 242 463 s \$0-spliceStart;
#X msg 245 399 0;
#X obj 325 88 inlet;
#X text 307 41 index 0 case;
#X obj 479 423 sel 0;
#X obj 480 481 outlet;
#X obj 478 449 bang;
#X floatatom 345 242 5 0 0 0 - - -, f 5;
#X floatatom 330 329 5 0 0 0 - - -, f 5;
#X obj 288 394 array get splicetable 0 1;
#X connect 0 0 5 0;
#X connect 1 0 0 0;
#X connect 1 0 14 0;
#X connect 2 0 4 0;
#X connect 2 1 1 1;
#X connect 3 0 0 1;
#X connect 3 0 11 0;
#X connect 3 0 15 0;
#X connect 4 0 1 0;
#X connect 4 1 3 0;
#X connect 5 0 8 0;
#X connect 5 1 16 0;
#X connect 8 0 7 0;
#X connect 9 0 2 0;
#X connect 11 0 13 0;
#X connect 13 0 12 0;
#X connect 16 0 6 0;
#X restore 64 243 pd indexZeroCase;
#N canvas 1 257 560 466 generalCase 0;
#X obj 207 53 inlet;
#X obj 132 335 s \$0-spliceStart;
#X obj 269 372 s \$0-spliceLength;
#X obj 207 95 t f f;
#X obj 267 130 t f f;
#X obj 263 313 -;
#X floatatom 294 340 5 0 0 0 - - -, f 5;
#X floatatom 137 114 5 0 0 0 - - -, f 5;
#X obj 293 230 - 1;
#X obj 128 181 - 1;
#X floatatom 306 287 5 0 0 0 - - -, f 5;
#X floatatom 230 193 5 0 0 0 - - -, f 5;
#X obj 291 257 array get splicetable 0 1;
#X obj 270 166 array get splicetable 0 1;
#X obj 129 228 array get splicetable 0 1;
#X connect 0 0 3 0;
#X connect 3 0 7 0;
#X connect 3 0 9 0;
#X connect 3 1 4 0;
#X connect 4 0 13 0;
#X connect 4 1 8 0;
#X connect 5 0 2 0;
#X connect 5 0 6 0;
#X connect 8 0 12 0;
#X connect 9 0 14 0;
#X connect 12 0 5 1;
#X connect 12 0 10 0;
#X connect 13 0 5 0;
#X connect 13 0 11 0;
#X connect 14 0 1 0;
#X restore 300 383 pd generalCase;
#X obj 189 281 f;
#X obj 300 349 f;
#X obj 58 282 bng 15 250 50 0 empty empty empty 17 7 0 10 -262144 -1
-1;
#X obj 188 341 bng 15 250 50 0 empty empty empty 17 7 0 10 -262144
-1 -1;
#X floatatom 248 192 5 0 0 0 - - -, f 5;
#X floatatom 140 438 5 0 0 0 - - -, f 5;
#X floatatom 252 456 10 0 0 0 - - -, f 10;
#X floatatom 261 59 5 0 0 0 - - -, f 5;
#X obj 194 206 t f f f;
#X connect 0 0 6 0;
#X connect 4 0 5 0;
#X connect 4 0 6 0;
#X connect 6 0 18 0;
#X connect 6 0 22 0;
#X connect 7 0 1 0;
#X connect 8 0 7 1;
#X connect 8 0 20 0;
#X connect 9 0 7 0;
#X connect 9 0 19 0;
#X connect 11 0 15 0;
#X connect 11 0 17 0;
#X connect 12 0 14 0;
#X connect 12 0 16 0;
#X connect 14 0 11 0;
#X connect 15 0 13 0;
#X connect 21 0 4 0;
#X connect 22 0 12 0;
#X connect 22 1 14 1;
#X connect 22 2 15 1;
#X restore 344 167 pd locateSplice;
#X text 347 446 list output when splice index located;
#N canvas 252 22 1042 699 arrayAppend 0;
#X obj 314 402 array size splicetable;
#X obj 235 507 array set splicetable;
#X obj 309 356 bng 15 250 50 0 empty empty empty 17 7 0 10 -262144
-1 -1;
#X obj 338 367 bng 15 250 50 0 empty empty empty 17 7 0 10 -262144
-1 -1;
#X floatatom 285 61 5 0 0 0 - - -, f 5;
#X msg 264 395 0;
#X floatatom 369 282 5 0 0 0 - - -, f 5;
#X obj 313 431 t f f;
#X obj 314 380 t b;
#X obj 317 321 sel 1;
#X floatatom 375 320 5 0 0 0 - - -, f 5;
#X obj 317 241 f;
#X obj 318 294 < 0;
#X obj 219 70 inlet;
#X msg 313 181 0;
#X obj 220 581 array get splicetable;
#X obj 217 448 t b b f;
#X obj 235 475 f;
#X obj 218 115 t b f;
#X floatatom 417 524 5 0 0 0 - - -, f 5;
#X msg 384 183 1;
#X obj 314 210 array get splicetable;
#X obj 313 154 t b b;
#X obj 172 523 bng 15 250 50 0 empty empty empty 17 7 0 10 -262144
-1 -1;
#N canvas 293 78 1246 751 sortarray 0;
#X obj 160 89 inlet;
#X obj 298 663 outlet;
#X text 292 692 sorted array;
#X text 161 71 array to sort (as list);
#X obj 886 104 array define \$0-scratch;
#X obj 184 211 array set \$0-scratch;
#X obj 142 362 array min \$0-scratch;
#X obj 72 179 bng 15 250 50 0 empty empty empty 17 7 0 10 -262144 -1
-1;
#X obj 901 171 r \$0-size;
#X obj 886 69 r \$0-size;
#X obj 351 199 list length;
#X obj 352 373 s \$0-size;
#X obj 351 312 pack s 0;
#X obj 350 278 symbol resize;
#X obj 349 242 t b f;
#X obj 1040 504 bng 15 250 50 0 empty empty empty 17 7 0 10 -262144
-1 -1;
#X obj 352 343 list trim;
#X obj 177 425 f;
#X msg 195 254 0;
#X obj 72 204 t b b;
#X obj 183 453 f;
#X obj 116 555 array max \$0-scratch;
#X obj 118 623 array set \$0-scratch;
#X obj 268 453 f;
#X obj 110 333 t b b b b;
#X obj 329 416 r \$0-sizefloat;
#X obj 442 278 s \$0-sizefloat;
#X obj 296 472 ==;
#X obj 331 445 - 1;
#X floatatom 151 405 5 0 0 0 - - -, f 5;
#X floatatom 342 492 5 0 0 0 - - -, f 5;
#X floatatom 202 481 5 0 0 0 - - -, f 5;
#X floatatom 142 602 5 0 0 0 - - -, f 5;
#X floatatom 147 454 5 0 0 0 - - -, f 5;
#X obj 228 416 + 1;
#X obj 1031 619 array get \$0-scratch;
#X obj 1029 647 print scratch;
#X msg 927 242 const 0;
#X obj 927 209 t b;
#X obj 110 303 until;
#X obj 318 549 s \$0-sortdone;
#X obj 140 274 r \$0-sortdone;
#X obj 296 511 sel 1;
#X obj 298 610 list;
#X obj 909 283 array define \$0-sorted;
#X obj 89 667 array get \$0-sorted;
#X obj 135 520 array set \$0-sorted;
#X text 443 41 Make copy of input array. Make new blank array with
size of input array Get the minimum value in copy array and assign
it to the first entry in blank array. Set index in copy array to max
value in copy array Increment index and repeat until index is the same
as length of input array.;
#X obj 1040 552 array get \$0-sorted;
#X obj 1039 585 print sorted;
#X obj 92 590 t b f;
#X obj 156 149 t b l l;
#X connect 0 0 51 0;
#X connect 6 0 29 0;
#X connect 6 0 46 0;
#X connect 6 1 22 1;
#X connect 7 0 19 0;
#X connect 8 0 38 0;
#X connect 8 0 44 0;
#X connect 9 0 4 0;
#X connect 10 0 14 0;
#X connect 12 0 16 0;
#X connect 13 0 12 0;
#X connect 14 0 13 0;
#X connect 14 1 12 1;
#X connect 14 1 26 0;
#X connect 15 0 35 0;
#X connect 15 0 48 0;
#X connect 16 0 11 0;
#X connect 17 0 20 0;
#X connect 17 0 23 1;
#X connect 17 0 33 0;
#X connect 17 0 34 0;
#X connect 18 0 17 1;
#X connect 19 0 39 0;
#X connect 19 1 18 0;
#X connect 20 0 31 0;
#X connect 20 0 46 1;
#X connect 21 0 32 0;
#X connect 21 0 50 0;
#X connect 23 0 27 0;
#X connect 24 0 23 0;
#X connect 24 1 21 0;
#X connect 24 2 6 0;
#X connect 24 3 17 0;
#X connect 25 0 28 0;
#X connect 27 0 30 0;
#X connect 27 0 42 0;
#X connect 28 0 27 1;
#X connect 34 0 17 1;
#X connect 35 0 36 0;
#X connect 37 0 44 0;
#X connect 38 0 37 0;
#X connect 39 0 24 0;
#X connect 41 0 39 1;
#X connect 42 0 40 0;
#X connect 42 0 43 0;
#X connect 43 0 1 0;
#X connect 45 0 43 1;
#X connect 48 0 49 0;
#X connect 50 0 45 0;
#X connect 50 1 22 0;
#X connect 51 0 7 0;
#X connect 51 1 5 0;
#X connect 51 2 10 0;
#X restore 221 611 pd sortarray;
#X obj 220 646 array set splicetable, f 12;
#X obj 365 656 print splices;
#X obj 410 475 s \$0-arraylength;
#X obj 382 453 + 1;
#X connect 0 0 7 0;
#X connect 4 0 18 0;
#X connect 5 0 16 0;
#X connect 7 0 16 0;
#X connect 7 0 19 0;
#X connect 7 1 28 0;
#X connect 8 0 0 0;
#X connect 9 0 2 0;
#X connect 9 0 5 0;
#X connect 9 1 3 0;
#X connect 9 1 8 0;
#X connect 11 0 6 0;
#X connect 11 0 12 0;
#X connect 12 0 9 0;
#X connect 12 0 10 0;
#X connect 13 0 18 0;
#X connect 14 0 21 0;
#X connect 15 0 24 0;
#X connect 16 0 15 0;
#X connect 16 1 17 0;
#X connect 16 2 1 1;
#X connect 17 0 1 0;
#X connect 18 0 22 0;
#X connect 18 1 17 1;
#X connect 20 0 21 1;
#X connect 21 0 11 0;
#X connect 22 0 14 0;
#X connect 22 1 20 0;
#X connect 23 0 15 0;
#X connect 24 0 25 0;
#X connect 24 0 26 0;
#X connect 28 0 27 0;
#X restore 116 209 pd arrayAppend;
#X obj 347 268 list prepend splice;
#X obj 347 310 list trim;
#X text 646 27 splice control;
#X obj 868 219 list length;
#X obj 868 245 t b f;
#X obj 770 154 t l l;
#X obj 769 185 array set splicetable;
#X obj 646 110 route clear set size;
#X obj 915 126 r \$0-arraylength;
#X obj 866 376 print array size;
#X obj 344 125 f;
#X obj 623 195 t b b b;
#X obj 683 155 r initbang;
#X connect 0 0 23 0;
#X connect 3 0 34 0;
#X connect 6 0 31 0;
#X connect 7 0 35 0;
#X connect 10 0 8 0;
#X connect 10 0 33 0;
#X connect 11 0 12 0;
#X connect 12 0 10 0;
#X connect 14 0 8 0;
#X connect 15 0 8 0;
#X connect 16 0 9 0;
#X connect 17 0 20 0;
#X connect 18 0 17 0;
#X connect 19 0 16 0;
#X connect 21 0 24 0;
#X connect 24 0 25 0;
#X connect 25 0 5 0;
#X connect 27 0 28 0;
#X connect 28 0 11 0;
#X connect 28 1 13 0;
#X connect 28 1 12 1;
#X connect 29 0 30 0;
#X connect 29 1 27 0;
#X connect 31 0 35 0;
#X connect 31 1 29 0;
#X connect 31 2 28 0;
#X connect 32 0 28 0;
#X connect 34 0 21 0;
#X connect 35 0 34 0;
#X connect 35 1 14 0;
#X connect 35 2 15 0;
#X connect 36 0 35 0;
#X restore 209 245 pd splices;
#X obj 211 91 bng 15 250 50 0 empty empty make_splice 17 7 0 10 -262144
-1 -1;
#X obj 240 113 r \$0-playpos;
#X obj 210 135 f;
#X obj 355 146 hsl 128 15 0 1 0 0 empty empty organize -2 -8 0 10 -262144
-1 -1 0 1;
#X obj 353 350 f;
#X text 353 408 sample length (ms);
#X obj 375 103 r organize;
#X obj 238 143 r eos;
#N canvas 166 240 550 382 todo 0;
#X text 98 174 expo bipolar response for varispeed control;
#X text 99 93 gene shift;
#X restore 94 56 pd todo;
#X obj 352 387 s saveReelMeta;
#N canvas 291 41 1351 918 record 0;
#X msg 443 119 stop;
#X msg 393 234 1;
#X msg 458 269 0;
#X obj 398 602 outlet, f 7;
#X obj 399 39 inlet;
#X obj 188 66 inlet~;
#X obj 399 74 route start stop clear;
#X msg 568 144 clear;
#X obj 190 306 tabwrite~ reel;
#X obj 621 594 s saveReelMeta;
#X text 392 626 length of recorded reel in ms;
#X obj 819 557 outlet;
#X text 823 589 record state;
#X obj 597 620 s reelLengthMS;
#N canvas 859 135 636 587 clearReel 0;
#X obj 162 272 array define reel 1.323e+06;
#X msg 151 228 const 0;
#X obj 122 173 t b b;
#X obj 185 198 s clearMeta;
#X obj 209 333 s spliceControl;
#X msg 209 302 clear;
#X msg 102 310 0;
#X obj 113 345 s saveReelMeta;
#X obj 108 380 s reelLengthMS;
#X obj 109 72 inlet;
#X obj 24 277 s recordingNewReel;
#X msg 71 227 1;
#X obj 84 424 array size reel;
#X obj 84 465 s recordLength;
#X floatatom 110 446 10 0 0 0 - - -, f 10;
#X connect 1 0 0 0;
#X connect 2 0 6 0;
#X connect 2 0 11 0;
#X connect 2 0 12 0;
#X connect 2 1 1 0;
#X connect 2 1 3 0;
#X connect 2 1 5 0;
#X connect 5 0 4 0;
#X connect 6 0 7 0;
#X connect 6 0 8 0;
#X connect 9 0 2 0;
#X connect 11 0 10 0;
#X connect 12 0 13 0;
#X connect 12 0 14 0;
#X restore 569 199 pd clearReel;
#N canvas 700 205 450 300 recordCounter 0;
#X obj 139 86 metro 1;
#X obj 139 146 f;
#X msg 175 119 0;
#X obj 176 146 + 1;
#X obj 139 44 inlet;
#X obj 139 213 outlet;
#X obj 264 39 inlet;
#X connect 0 0 1 0;
#X connect 1 0 3 0;
#X connect 1 0 5 0;
#X connect 2 0 1 1;
#X connect 3 0 1 1;
#X connect 4 0 0 0;
#X connect 6 0 2 0;
#X restore 397 351 pd recordCounter;
#X obj 818 521 r \$0-recordState;
#X obj 434 317 s \$0-recordState;
#X obj 595 519 spigot;
#X text 854 41 if recording reel \, then stop at end of buffer and
output reel endpoints as recording proceeds. if recording to splice
\, don't output these things \, start at splice start \, and record
for length of splice;
#X obj 685 378 array size reel;
#X msg 427 518 stop;
#X obj 458 39 r recControl;
#X obj 427 545 s recControl;
#X obj 595 493 f;
#X obj 628 478 r recordingNewReel;
#X obj 610 169 s spliceControl;
#X msg 554 274 0;
#X floatatom 357 398 5 0 0 0 - - -, f 5;
#X floatatom 685 407 10 0 0 0 - - -, f 10;
#X floatatom 655 502 5 0 0 0 - - -, f 5;
#X obj 427 491 sel 1;
#X obj 595 395 bang;
#X obj 621 561 s recordLength;
#X obj 500 491 sel 1;
#X obj 515 421 r recordLength;
#X msg 587 663 0;
#X obj 587 696 s recordStart;
#N canvas 0 22 450 300 recordStartMsg 0;
#X obj 198 55 r recordStart;
#X msg 122 94 start;
#X obj 124 182 list trim;
#X obj 123 49 inlet;
#X obj 124 227 outlet;
#X obj 123 140 list append;
#X obj 198 82 / 1000;
#X obj 198 106 *;
#X obj 306 72 samplerate~;
#X obj 376 45 bng 15 250 50 0 empty empty empty 17 7 0 10 -262144 -1
-1;
#X obj 305 44 r initbang;
#X connect 0 0 6 0;
#X connect 1 0 5 0;
#X connect 2 0 4 0;
#X connect 3 0 1 0;
#X connect 5 0 2 0;
#X connect 6 0 7 0;
#X connect 7 0 5 1;
#X connect 8 0 7 1;
#X connect 9 0 8 0;
#X connect 10 0 8 0;
#X restore 394 169 pd recordStartMsg;
#X floatatom 534 451 5 0 0 0 - - -, f 5;
#X floatatom 624 542 5 0 0 0 - - -, f 5;
#X obj 538 323 r recordingNewReel;
#X obj 481 144 print;
#N canvas 0 22 450 300 not 0;
#X obj 118 104 expr abs(1 - $f1);
#X obj 117 37 inlet;
#X obj 126 193 outlet;
#X connect 0 0 2 0;
#X connect 1 0 0 0;
#X restore 537 354 pd not;
#X obj 499 388 spigot;
#X floatatom 560 382 5 0 0 0 - - -, f 5;
#X obj 500 464 >=;
#X obj 427 464 >=;
#X floatatom 590 347 5 0 0 0 - - -, f 5;
#X obj 458 234 s recordingNewReel;
#X msg 458 199 0;
#X obj 685 350 r initbang;
#X connect 0 0 8 0;
#X connect 0 0 2 0;
#X connect 0 0 27 0;
#X connect 0 0 42 0;
#X connect 0 0 50 0;
#X connect 1 0 15 0;
#X connect 1 0 17 0;
#X connect 2 0 15 0;
#X connect 2 0 17 0;
#X connect 2 0 32 0;
#X connect 2 0 15 1;
#X connect 4 0 6 0;
#X connect 5 0 8 0;
#X connect 6 0 38 0;
#X connect 6 1 0 0;
#X connect 6 2 7 0;
#X connect 7 0 14 0;
#X connect 7 0 26 0;
#X connect 7 0 27 0;
#X connect 7 0 2 0;
#X connect 15 0 3 0;
#X connect 15 0 24 1;
#X connect 15 0 28 0;
#X connect 15 0 44 0;
#X connect 15 0 47 0;
#X connect 16 0 11 0;
#X connect 18 0 9 0;
#X connect 18 0 13 0;
#X connect 18 0 33 0;
#X connect 18 0 36 0;
#X connect 18 0 40 0;
#X connect 20 0 29 0;
#X connect 20 0 47 1;
#X connect 21 0 23 0;
#X connect 22 0 6 0;
#X connect 24 0 18 0;
#X connect 25 0 18 1;
#X connect 25 0 30 0;
#X connect 27 0 15 1;
#X connect 31 0 21 0;
#X connect 32 0 24 0;
#X connect 34 0 21 0;
#X connect 35 0 39 0;
#X connect 35 0 46 1;
#X connect 36 0 37 0;
#X connect 38 0 8 0;
#X connect 38 0 1 0;
#X connect 41 0 43 0;
#X connect 41 0 48 0;
#X connect 43 0 44 1;
#X connect 43 0 45 0;
#X connect 44 0 46 0;
#X connect 46 0 34 0;
#X connect 47 0 31 0;
#X connect 50 0 49 0;
#X connect 51 0 20 0;
#X restore 586 296 pd record;
#X msg 736 255 clear;
#X obj 669 347 tgl 15 0 empty empty empty 17 7 0 10 -262144 -1 -1 0
1;
#X floatatom 294 387 5 0 0 0 - - -, f 5;
#N canvas 0 22 450 300 packReelLength 0;
#X obj 178 32 inlet;
#X obj 182 155 pack s f;
#X obj 189 261 outlet;
#X obj 180 117 symbol reel;
#X obj 180 70 t b f;
#X obj 183 200 list trim;
#X connect 0 0 4 0;
#X connect 1 0 5 0;
#X connect 3 0 1 0;
#X connect 4 0 3 0;
#X connect 4 1 1 1;
#X connect 5 0 2 0;
#X restore 353 445 pd packReelLength;
#X obj 353 312 r reelLengthMS;
#X obj 266 171 r spliceControl;
#X msg 299 219 clear;
#X obj 1143 96 loadbang;
#X obj 238 174 f;
#X obj 326 86 t b b;
#X obj 326 61 delay 1000;
#X obj 487 483 hsl 128 15 0 1 0 0 empty empty gene_size -2 -8 0 10
-262144 -1 -1 0 1;
#X obj 568 459 hsl 128 15 0 1 0 0 empty empty slide -2 -8 0 10 -262144
-1 -1 0 1;
#N canvas 0 22 871 500 genes 0;
#X obj 132 32 inlet;
#X obj 251 29 inlet;
#N canvas 0 22 652 487 geneSize 0;
#X obj 222 44 inlet;
#X text 289 46 float 0-1 \, larger for smaller divisions;
#X obj 221 131 int;
#X floatatom 259 186 5 0 0 0 - - -, f 5;
#X obj 218 275 outlet;
#X obj 221 205 + 1;
#X obj 223 96 * 11;
#X connect 0 0 6 0;
#X connect 2 0 3 0;
#X connect 2 0 5 0;
#X connect 5 0 4 0;
#X connect 6 0 2 0;
#X restore 306 73 pd geneSize;
#X floatatom 193 253 5 0 0 0 - - -, f 5;
#X floatatom 314 231 5 0 0 0 - - -, f 5;
#X obj 148 311 pack 0 0;
#X obj 193 286 f;
#X obj 148 275 f;
#X obj 148 239 t f b;
#X obj 193 217 t b f;
#X obj 148 347 list prepend gene;
#X obj 148 419 outlet;
#X obj 314 165 f;
#X obj 314 132 t b f;
#N canvas 0 22 450 300 slide 0;
#X obj 187 67 inlet;
#X obj 137 274 outlet;
#X obj 115 69 inlet;
#X text 115 48 0-1;
#X text 182 48 gene size;
#X obj 138 121 *;
#X obj 138 151 int;
#X obj 185 95 - 1;
#X connect 0 0 7 0;
#X connect 2 0 5 0;
#X connect 5 0 6 0;
#X connect 6 0 1 0;
#X connect 7 0 5 1;
#X restore 314 198 pd slide;
#X obj 148 383 list trim;
#X connect 0 0 2 0;
#X connect 1 0 12 0;
#X connect 2 0 3 0;
#X connect 2 0 8 0;
#X connect 2 0 13 0;
#X connect 5 0 10 0;
#X connect 6 0 5 1;
#X connect 7 0 5 0;
#X connect 8 0 7 0;
#X connect 8 1 6 0;
#X connect 9 0 7 0;
#X connect 9 1 6 0;
#X connect 10 0 15 0;
#X connect 12 0 14 0;
#X connect 13 0 12 0;
#X connect 13 1 14 1;
#X connect 14 0 4 0;
#X connect 14 0 9 0;
#X connect 15 0 11 0;
#X restore 483 521 pd genes;
#X obj 586 103 *~;
#X obj 603 59 hsl 128 15 0 10 0 0 empty empty input_gain -2 -8 0 10
-262144 -1 -1 0 1;
#X floatatom 586 345 10 0 0 0 - - -, f 10;
#X obj 930 454 hsl 128 15 0 1 0 0 empty empty sound_on_sound -2 -8
0 10 -262144 -1 -1 0 1;
#X obj 928 485 s sos;
#X obj 601 132 s~ input;
#N canvas 0 22 450 300 crossfade~ 0;
#X obj 97 63 inlet~;
#X obj 176 63 inlet~;
#X obj 255 63 inlet;
#X obj 173 257 outlet~;
#X obj 112 134 *~;
#X obj 133 102 expr~ 1 - $v1;
#X obj 175 134 *~;
#X connect 0 0 4 0;
#X connect 1 0 6 0;
#X connect 2 0 5 0;
#X connect 2 0 6 1;
#X connect 4 0 3 0;
#X connect 5 0 4 1;
#X connect 6 0 3 0;
#X restore 586 203 pd crossfade~;
#X obj 661 180 r sos;
#X obj 622 155 r~ processed;
#X obj 487 360 r eos;
#X obj 703 347 s recordState;
#X obj 565 411 r slide;
#X obj 484 445 r geneSize;
#X obj 211 67 r makeSplice;
#X obj 299 195 r clearSplices;
#X obj 688 24 r inputGain;
#X obj 250 920 dac~;
#X obj 250 880 *~ 1;
#X obj 543 22 adc~;
#X obj 543 57 *~ 1;
#X obj 1254 150 s initbang;
#X obj 326 36 r initbang;
#X obj 600 24 r initbang;
#X obj 486 389 r initbang;
#X obj 1143 126 delay 1000;
#X msg 1143 156 \; pd dsp 1 \;;
#X obj 637 227 r recStart;
#X obj 691 204 r recStop;
#X obj 736 229 r recClear;
#X obj 455 20 osc~ 220;
#X obj 249 823 osc~ 440;
#N canvas 177 47 1291 957 routing 0;
#X obj 280 136 s inputGain;
#X obj 986 117 tedium_output 12;
#X obj 986 155 tedium_output 16;
#X obj 603 88 tedium_output 26;
#X obj 942 222 tedium_input 4;
#X obj 717 160 tedium_input 17;
#X obj 1001 461 tedium_input 2;
#X obj 1111 461 tedium_input 3;
#X obj 786 63 tedium_input 23;
#X obj 602 160 tedium_input 24;
#X obj 526 399 tedium_input 25;
#X text 995 13 digital outs;
#X text 940 195 digital inputs;
#X text 73 28 adc in 1-6;
#X obj 280 85 clip 0 4095;
#X obj 280 54 r adc1;
#X obj 363 85 clip 0 4095;
#X obj 363 54 r adc2;
#X obj 363 136 s varispeed;
#X obj 443 85 clip 0 4095;
#X obj 443 54 r adc3;
#X obj 443 136 s sos;
#X obj 281 212 clip 0 4095;
#X obj 281 181 r adc4;
#X obj 281 265 s organize;
#X obj 364 212 clip 0 4095;
#X obj 364 181 r adc5;
#X obj 364 265 s slide;
#X obj 443 212 clip 0 4095;
#X obj 443 181 r adc6;
#X obj 443 266 s geneSize;
#X text 603 108 light switch;
#X obj 603 62 r recordState;
#X obj 602 188 f;
#X obj 637 188 + 1;
#X obj 602 211 % 2;
#X floatatom 611 236 5 0 0 0 - - -, f 5;
#X obj 602 258 sel 1;
#X obj 602 293 s recStart;
#X obj 629 317 bang;
#X obj 629 342 s recStop;
#X text 605 141 record;
#X obj 786 115 s makeSplice;
#X obj 636 399 tedium_input 24;
#X obj 591 466 &&;
#X obj 591 492 sel 1;
#X obj 591 519 s recClear;
#X obj 749 398 tedium_input 25;
#X obj 816 469 &&;
#X obj 816 495 sel 1;
#X obj 859 397 tedium_input 23;
#X obj 816 521 s clearSplices;
#X obj 986 36 r eos;
#X obj 1100 259 f;
#X obj 1135 259 + 1;
#X obj 1100 282 % 2;
#X floatatom 1109 307 5 0 0 0 - - -, f 5;
#X obj 1100 329 sel 1;
#X obj 1100 361 s recStart;
#X obj 1127 388 bang;
#X obj 1127 413 s recStop;
#X obj 941 307 s playControl;
#X obj 941 251 threshold~ 0.5 0 0.5 0;
#X msg 941 279 1;
#X msg 1055 278 0;
#X obj 1001 521 s makeSplice;
#X obj 443 240 / 4095;
#X obj 364 239 / 4095;
#X obj 281 239 / 4095;
#X obj 444 111 / 4095;
#X obj 363 110 / 4095;
#X obj 280 110 / 4095;
#X msg 986 68 1;
#X obj 1018 69 delay 20;
#X msg 1019 93 0;
#X obj 50 163 terminal_tedium_adc;
#X obj 50 188 s adc1;
#X obj 63 211 s adc2;
#X obj 91 255 s adc4;
#X obj 105 279 s adc5;
#X obj 77 232 s adc3;
#X obj 120 303 s adc6;
#X msg 48 137 open;
#X obj 49 59 r initbang;
#X obj 25 116 metro 10;
#X msg 105 130 smooth 4;
#X msg 105 106 deadband 2;
#X obj 668 234 print rec state;
#X obj 1024 494 print input 2;
#X obj 877 98 print makesplice;
#X obj 694 342 print recStop;
#X obj 602 364 print recStart;
#X obj 36 88 t b b;
#X connect 4 0 62 0;
#X connect 5 0 33 0;
#X connect 6 0 65 0;
#X connect 8 0 42 0;
#X connect 8 0 89 0;
#X connect 9 0 33 0;
#X connect 14 0 71 0;
#X connect 15 0 14 0;
#X connect 16 0 70 0;
#X connect 17 0 16 0;
#X connect 19 0 69 0;
#X connect 20 0 19 0;
#X connect 22 0 68 0;
#X connect 23 0 22 0;
#X connect 25 0 67 0;
#X connect 26 0 25 0;
#X connect 28 0 66 0;
#X connect 29 0 28 0;
#X connect 32 0 3 0;
#X connect 33 0 34 0;
#X connect 33 0 35 0;
#X connect 34 0 33 1;
#X connect 35 0 36 0;
#X connect 35 0 37 0;
#X connect 35 0 87 0;
#X connect 37 0 38 0;
#X connect 37 0 91 0;
#X connect 37 1 39 0;
#X connect 39 0 40 0;
#X connect 39 0 90 0;
#X connect 44 0 45 0;
#X connect 45 0 46 0;
#X connect 48 0 49 0;
#X connect 49 0 51 0;
#X connect 52 0 72 0;
#X connect 52 0 73 0;
#X connect 53 0 54 0;
#X connect 53 0 55 0;
#X connect 54 0 53 1;
#X connect 55 0 56 0;
#X connect 55 0 57 0;
#X connect 57 0 58 0;
#X connect 57 1 59 0;
#X connect 59 0 60 0;
#X connect 62 0 63 0;
#X connect 62 1 64 0;
#X connect 63 0 61 0;
#X connect 64 0 61 0;
#X connect 66 0 30 0;
#X connect 67 0 27 0;
#X connect 68 0 24 0;
#X connect 69 0 21 0;
#X connect 70 0 18 0;
#X connect 71 0 0 0;
#X connect 72 0 1 0;
#X connect 73 0 74 0;
#X connect 74 0 1 0;
#X connect 75 0 76 0;
#X connect 75 1 77 0;
#X connect 75 2 80 0;
#X connect 75 3 78 0;
#X connect 75 4 79 0;
#X connect 75 5 81 0;
#X connect 82 0 75 0;
#X connect 83 0 92 0;
#X connect 84 0 75 0;
#X connect 85 0 75 0;
#X connect 86 0 75 0;
#X connect 92 0 84 0;
#X connect 92 1 82 0;
#X restore 1163 476 pd routing;
#X connect 0 0 13 1;
#X connect 1 0 13 1;
#X connect 3 0 5 0;
#X connect 4 0 5 1;
#X connect 5 0 2 0;
#X connect 6 0 22 1;
#X connect 7 0 12 0;
#X connect 7 0 16 0;
#X connect 7 0 17 0;
#X connect 9 0 6 0;
#X connect 10 0 22 0;
#X connect 13 0 30 0;
#X connect 13 1 15 0;
#X connect 13 1 38 0;
#X connect 14 0 13 1;
#X connect 18 0 7 0;
#X connect 19 0 2 2;
#X connect 20 0 2 2;
#X connect 21 0 52 0;
#X connect 22 0 2 1;
#X connect 23 0 22 0;
#X connect 23 1 6 0;
#X connect 24 0 23 0;
#X connect 25 0 27 0;
#X connect 26 0 27 1;
#X connect 28 0 33 0;
#X connect 28 0 34 0;
#X connect 29 0 28 1;
#X connect 31 0 32 0;
#X connect 34 0 13 0;
#X connect 35 0 34 2;
#X connect 36 0 34 1;
#X connect 37 0 26 0;
#X connect 37 0 25 0;
#X connect 39 0 26 0;
#X connect 40 0 25 0;
#X connect 41 0 3 0;
#X connect 42 0 20 0;
#X connect 43 0 29 0;
#X connect 45 0 44 0;
#X connect 45 0 44 1;
#X connect 46 0 47 0;
#X connect 46 1 47 0;
#X connect 47 0 28 0;
#X connect 49 0 24 0;
#X connect 50 0 29 0;
#X connect 51 0 26 0;
#X connect 51 0 25 0;
#X connect 52 0 53 0;
#X connect 52 0 48 0;
#X connect 54 0 0 0;
#X connect 55 0 1 0;
#X connect 56 0 14 0;
#X connect 57 0 47 0;
#X connect 58 0 45 0;
