#N canvas 239 40 1386 984 10;
#X msg 628 496 start;
#X msg 682 497 stop;
#N canvas 207 22 852 763 playhead 0;
#X obj 198 658 outlet~;
#X obj 365 657 outlet~;
#X text 195 684 playback;
#X obj 239 63 inlet;
#X obj 135 64 inlet;
#X text 133 36 play speed;
#X text 20 18 play state (0 or 1);
#X obj 49 60 inlet;
#X obj 289 354 phasor~ 1;
#X obj 287 400 *~;
#X obj 257 548 *~;
#X obj 50 293 sel 1;
#X obj 50 329 t b b;
#X msg 346 473 1;
#X msg 419 477 0;
#X msg 339 325 0;
#X obj 256 313 *~ 1;
#X obj 355 63 inlet;
#X text 360 30 sample length (ms);
#X obj 513 101 samplerate~;
#X obj 490 212 / 1000;
#X obj 491 247 *;
#X obj 253 243 expr 1 / ($f1 / 1000);
#X obj 399 410 *~;
#X text 346 680 play position (ms);
#X obj 496 652 outlet~;
#X text 498 680 play position (0-1);
#X obj 268 462 +~ 0;
#X text 237 38 start pos (ms);
#X obj 407 211 / 1000;
#X obj 407 247 *;
#X obj 364 553 *~;
#X obj 494 563 *~;
#X obj 652 657 outlet;
#X text 648 682 end of loop;
#X obj 653 543 spigot;
#X obj 502 394 expr~ $v1 > 0.99;
#X obj 502 428 threshold~ 0.5 1 0.5 0;
#X obj 244 496 tabread4~ reel;
#N canvas 36 29 1008 713 envelope~ 0;
#N canvas 0 22 450 278 (subpatch) 0;
#X array \$0-envelope 512 float 1;
#A 0 0 0 0.0507812 0.101562 0.152344 0.203125 0.253906 0.304688 0.355469
0.40625 0.457031 0.507812 0.558594 0.609375 0.660156 0.710938 0.761719
0.8125 0.863281 0.914062 0.964844 1 1 1 1 1 1 1 1 1 1 1 1 1 1 1 1 1
1 1 1 1 1 1 1 1 1 1 1 1 1 1 1 1 1 1 1 1 1 1 1 1 1 1 1 1 1 1 1 1 1 1
1 1 1 1 1 1 1 1 1 1 1 1 1 1 1 1 1 1 1 1 1 1 1 1 1 1 1 1 1 1 1 1 1 1
1 1 1 1 1 1 1 1 1 1 1 1 1 1 1 1 1 1 1 1 1 1 1 1 1 1 1 1 1 1 1 1 1 1
1 1 1 1 1 1 1 1 1 1 1 1 1 1 1 1 1 1 1 1 1 1 1 1 1 1 1 1 1 1 1 1 1 1
1 1 1 1 1 1 1 1 1 1 1 1 1 1 1 1 1 1 1 1 1 1 1 1 1 1 1 1 1 1 1 1 1 1
1 1 1 1 1 1 1 1 1 1 1 1 1 1 1 1 1 1 1 1 1 1 1 1 1 1 1 1 1 1 1 1 1 1
1 1 1 1 1 1 1 1 1 1 1 1 1 1 1 1 1 1 1 1 1 1 1 1 1 1 1 1 1 1 1 1 1 1
1 1 1 1 1 1 1 1 1 1 1 1 1 1 1 1 1 1 1 1 1 1 1 1 1 1 1 1 1 1 1 1 1 1
1 1 1 1 1 1 1 1 1 1 1 1 1 1 1 1 1 1 1 1 1 1 1 1 1 1 1 1 1 1 1 1 1 1
1 1 1 1 1 1 1 1 1 1 1 1 1 1 1 1 1 1 1 1 1 1 1 1 1 1 1 1 1 1 1 1 1 1
1 1 1 1 1 1 1 1 1 1 1 1 1 1 1 1 1 1 1 1 1 1 1 1 1 1 1 1 1 1 1 1 1 1
1 1 1 1 1 1 1 1 1 1 1 1 1 1 1 1 1 1 1 1 1 1 1 1 1 1 1 1 1 1 1 1 1 1
1 1 1 1 1 1 1 1 1 1 1 1 1 1 1 1 1 1 1 1 1 1 1 1 1 1 1 1 1 1 1 1 1 1
1 1 1 1 1 1 1 1 1 1 1 1 1 1 1 0.964844 0.914062 0.863281 0.8125 0.761719
0.710938 0.660156 0.609375 0.558594 0.507812 0.457031 0.40625 0.355469
0.304688 0.253906 0.203125 0;
#X coords 0 1 512 0 200 140 1 0 0;
#X restore 593 557 graph;
#N canvas 0 22 554 573 generateEnvelope 0;
#X obj 91 300 t f b;
#X obj 91 125 bng 15 250 50 0 empty empty empty 17 7 0 10 -262144 -1
-1;
#X obj 118 351 f;
#X obj 159 352 + 1;
#X obj 90 388 clip 0 1;
#X obj 91 451 tabwrite \$0-envelope;
#X msg 159 172 0;
#X floatatom 181 374 5 0 0 0 - - -, f 5;
#X floatatom 129 416 5 0 0 0 - - -, f 5;
#X obj 91 147 t b b b;
#X msg 90 192 13 256;
#X msg 105 249 0 256;
#X obj 91 277 line 0 1, f 14;
#X obj 105 225 delay 300;
#X connect 0 0 4 0;
#X connect 0 1 2 0;
#X connect 1 0 9 0;
#X connect 2 0 3 0;
#X connect 2 0 5 1;
#X connect 2 0 7 0;
#X connect 3 0 2 1;
#X connect 4 0 5 0;
#X connect 4 0 8 0;
#X connect 6 0 2 1;
#X connect 6 0 12 0;
#X connect 9 0 13 0;
#X connect 9 1 10 0;
#X connect 9 2 6 0;
#X connect 10 0 12 0;
#X connect 11 0 12 0;
#X connect 12 0 0 0;
#X connect 13 0 11 0;
#X restore 45 580 pd generateEnvelope;
#X obj 335 147 tabread4~ \$0-envelope;
#X obj 335 105 *~ 512;
#X obj 335 22 inlet~;
#X text 392 24 index signal;
#X obj 336 234 outlet~;
#X connect 2 0 6 0;
#X connect 3 0 2 0;
#X connect 4 0 3 0;
#X restore 75 544 pd envelope~;
#X obj 197 619 *~;
#X obj 512 47 r initbang;
#X obj 252 168 r initbang;
#X msg 252 203 1;
#X connect 3 0 29 0;
#X connect 4 0 16 1;
#X connect 7 0 11 0;
#X connect 8 0 9 0;
#X connect 8 0 23 0;
#X connect 8 0 32 0;
#X connect 8 0 36 0;
#X connect 8 0 39 0;
#X connect 9 0 27 0;
#X connect 10 0 40 0;
#X connect 11 0 12 0;
#X connect 11 1 14 0;
#X connect 12 0 13 0;
#X connect 12 1 15 0;
#X connect 13 0 10 1;
#X connect 13 0 31 1;
#X connect 13 0 32 1;
#X connect 13 0 35 1;
#X connect 14 0 10 1;
#X connect 14 0 31 1;
#X connect 14 0 32 1;
#X connect 14 0 35 1;
#X connect 15 0 8 1;
#X connect 16 0 8 0;
#X connect 17 0 20 0;
#X connect 17 0 22 0;
#X connect 17 0 23 1;
#X connect 19 0 21 1;
#X connect 19 0 30 1;
#X connect 20 0 21 0;
#X connect 21 0 9 1;
#X connect 22 0 16 0;
#X connect 23 0 31 0;
#X connect 27 0 38 0;
#X connect 29 0 30 0;
#X connect 30 0 27 1;
#X connect 31 0 1 0;
#X connect 32 0 25 0;
#X connect 35 0 33 0;
#X connect 36 0 37 0;
#X connect 37 0 35 0;
#X connect 38 0 10 0;
#X connect 39 0 40 1;
#X connect 40 0 0 0;
#X connect 41 0 19 0;
#X connect 42 0 43 0;
#X connect 43 0 22 0;
#X restore 212 667 pd playhead;
#X obj 95 533 hsl 128 15 -3 3 0 0 empty empty varispeed -2 -8 0 10
-262144 -1 -1 8000 1;
#X obj 57 641 tgl 15 0 empty empty play 17 7 0 10 -262144 -1 -1 1 1
;
#X obj 253 325 f;
#X text 253 383 sample length (ms);
#X obj 356 779 bng 15 250 50 0 empty empty empty 17 7 0 10 -262144
-1 -1;
#X obj 356 808 s eos;
#X obj 92 496 r varispeed;
#N canvas 166 240 550 382 todo 0;
#X text 98 174 expo bipolar response for varispeed control;
#X text 99 93 gene shift;
#X restore 56 42 pd todo;
#X obj 252 362 s saveReelMeta;
#N canvas 291 41 1351 918 record 0;
#X msg 443 119 stop;
#X msg 393 234 1;
#X msg 458 269 0;
#X obj 398 602 outlet, f 7;
#X obj 399 39 inlet;
#X obj 188 66 inlet~;
#X obj 399 74 route start stop clear;
#X msg 568 144 clear;
#X obj 190 306 tabwrite~ reel;
#X obj 621 594 s saveReelMeta;
#X text 392 626 length of recorded reel in ms;
#X obj 819 557 outlet;
#X text 823 589 record state;
#X obj 597 620 s reelLengthMS;
#N canvas 859 135 636 587 clearReel 0;
#X obj 162 272 array define reel 1.323e+06;
#X msg 151 228 const 0;
#X obj 122 173 t b b;
#X obj 185 198 s clearMeta;
#X obj 209 333 s spliceControl;
#X msg 209 302 clear;
#X msg 102 310 0;
#X obj 113 345 s saveReelMeta;
#X obj 108 380 s reelLengthMS;
#X obj 109 72 inlet;
#X obj 24 277 s recordingNewReel;
#X msg 71 227 1;
#X obj 84 424 array size reel;
#X obj 84 465 s recordLength;
#X floatatom 110 446 10 0 0 0 - - -, f 10;
#X connect 1 0 0 0;
#X connect 2 0 6 0;
#X connect 2 0 11 0;
#X connect 2 0 12 0;
#X connect 2 1 1 0;
#X connect 2 1 3 0;
#X connect 2 1 5 0;
#X connect 5 0 4 0;
#X connect 6 0 7 0;
#X connect 6 0 8 0;
#X connect 9 0 2 0;
#X connect 11 0 10 0;
#X connect 12 0 13 0;
#X connect 12 0 14 0;
#X restore 569 199 pd clearReel;
#N canvas 700 205 450 300 recordCounter 0;
#X obj 139 86 metro 1;
#X obj 139 146 f;
#X msg 175 119 0;
#X obj 176 146 + 1;
#X obj 139 44 inlet;
#X obj 139 213 outlet;
#X obj 264 39 inlet;
#X connect 0 0 1 0;
#X connect 1 0 3 0;
#X connect 1 0 5 0;
#X connect 2 0 1 1;
#X connect 3 0 1 1;
#X connect 4 0 0 0;
#X connect 6 0 2 0;
#X restore 397 351 pd recordCounter;
#X obj 818 521 r \$0-recordState;
#X obj 434 317 s \$0-recordState;
#X obj 595 519 spigot;
#X text 854 41 if recording reel \, then stop at end of buffer and
output reel endpoints as recording proceeds. if recording to splice
\, don't output these things \, start at splice start \, and record
for length of splice;
#X obj 685 378 array size reel;
#X msg 427 518 stop;
#X obj 458 39 r recControl;
#X obj 427 545 s recControl;
#X obj 595 493 f;
#X obj 628 478 r recordingNewReel;
#X obj 610 169 s spliceControl;
#X msg 554 274 0;
#X floatatom 357 398 5 0 0 0 - - -, f 5;
#X floatatom 685 407 10 0 0 0 - - -, f 10;
#X floatatom 655 502 5 0 0 0 - - -, f 5;
#X obj 427 491 sel 1;
#X obj 595 395 bang;
#X obj 621 561 s recordLength;
#X obj 500 491 sel 1;
#X obj 515 421 r recordLength;
#X msg 587 663 0;
#X obj 587 696 s recordStart;
#N canvas 0 22 450 300 recordStartMsg 0;
#X obj 198 55 r recordStart;
#X msg 122 94 start;
#X obj 124 182 list trim;
#X obj 123 49 inlet;
#X obj 124 227 outlet;
#X obj 123 140 list append;
#X obj 198 82 / 1000;
#X obj 198 106 *;
#X obj 306 72 samplerate~;
#X obj 376 45 bng 15 250 50 0 empty empty empty 17 7 0 10 -262144 -1
-1;
#X obj 305 44 r initbang;
#X connect 0 0 6 0;
#X connect 1 0 5 0;
#X connect 2 0 4 0;
#X connect 3 0 1 0;
#X connect 5 0 2 0;
#X connect 6 0 7 0;
#X connect 7 0 5 1;
#X connect 8 0 7 1;
#X connect 9 0 8 0;
#X connect 10 0 8 0;
#X restore 394 169 pd recordStartMsg;
#X floatatom 534 451 5 0 0 0 - - -, f 5;
#X floatatom 624 542 5 0 0 0 - - -, f 5;
#X obj 538 323 r recordingNewReel;
#X obj 481 144 print;
#N canvas 0 22 450 300 not 0;
#X obj 118 104 expr abs(1 - $f1);
#X obj 117 37 inlet;
#X obj 126 193 outlet;
#X connect 0 0 2 0;
#X connect 1 0 0 0;
#X restore 537 354 pd not;
#X obj 499 388 spigot;
#X floatatom 560 382 5 0 0 0 - - -, f 5;
#X obj 500 464 >=;
#X obj 427 464 >=;
#X floatatom 590 347 5 0 0 0 - - -, f 5;
#X obj 458 234 s recordingNewReel;
#X msg 458 199 0;
#X obj 685 350 r initbang;
#X connect 0 0 8 0;
#X connect 0 0 2 0;
#X connect 0 0 27 0;
#X connect 0 0 42 0;
#X connect 0 0 50 0;
#X connect 1 0 15 0;
#X connect 1 0 17 0;
#X connect 2 0 15 0;
#X connect 2 0 17 0;
#X connect 2 0 32 0;
#X connect 2 0 15 1;
#X connect 4 0 6 0;
#X connect 5 0 8 0;
#X connect 6 0 38 0;
#X connect 6 1 0 0;
#X connect 6 2 7 0;
#X connect 7 0 14 0;
#X connect 7 0 26 0;
#X connect 7 0 27 0;
#X connect 7 0 2 0;
#X connect 15 0 3 0;
#X connect 15 0 24 1;
#X connect 15 0 28 0;
#X connect 15 0 44 0;
#X connect 15 0 47 0;
#X connect 16 0 11 0;
#X connect 18 0 9 0;
#X connect 18 0 13 0;
#X connect 18 0 33 0;
#X connect 18 0 36 0;
#X connect 18 0 40 0;
#X connect 20 0 29 0;
#X connect 20 0 47 1;
#X connect 21 0 23 0;
#X connect 22 0 6 0;
#X connect 24 0 18 0;
#X connect 25 0 18 1;
#X connect 25 0 30 0;
#X connect 27 0 15 1;
#X connect 31 0 21 0;
#X connect 32 0 24 0;
#X connect 34 0 21 0;
#X connect 35 0 39 0;
#X connect 35 0 46 1;
#X connect 36 0 37 0;
#X connect 38 0 8 0;
#X connect 38 0 1 0;
#X connect 41 0 43 0;
#X connect 41 0 48 0;
#X connect 43 0 44 1;
#X connect 43 0 45 0;
#X connect 44 0 46 0;
#X connect 46 0 34 0;
#X connect 47 0 31 0;
#X connect 50 0 49 0;
#X connect 51 0 20 0;
#X restore 577 538 pd record;
#X msg 727 497 clear;
#X obj 660 589 tgl 15 0 empty empty empty 17 7 0 10 -262144 -1 -1 0
1;
#X floatatom 308 342 5 0 0 0 - - -, f 5;
#N canvas 0 22 450 300 packReelLength 0;
#X obj 178 32 inlet;
#X obj 182 155 pack s f;
#X obj 189 261 outlet;
#X obj 180 117 symbol reel;
#X obj 180 70 t b f;
#X obj 183 200 list trim;
#X connect 0 0 4 0;
#X connect 1 0 5 0;
#X connect 3 0 1 0;
#X connect 4 0 3 0;
#X connect 4 1 1 1;
#X connect 5 0 2 0;
#X restore 253 420 pd packReelLength;
#N canvas 204 22 1039 699 windowLogic 0;
#X obj 245 33 inlet;
#X msg 369 22 reel 2000 \; length of reel;
#X obj 303 605 outlet;
#X obj 395 606 outlet;
#X text 302 635 start pos;
#X text 398 632 length;
#X text 173 599 window outlets;
#X text 491 32 clear splice and set upper/lower bounds to 0 \, 2000
;
#X text 546 215 output is a start position and length. reel is the
lowest priority \, but clears out any splice that's set. splice is
higher priority than reel. gene is the highest priority and is based
on the bounds calculated by splice or reel.;
#X obj 396 563 r \$0-length;
#X obj 303 561 r \$0-startPos;
#N canvas 0 22 450 300 reel 0;
#X obj 165 99 t b f, f 6;
#X obj 164 56 inlet;
#X obj 112 212 s \$0-startPos;
#X msg 112 171 0;
#X obj 217 211 s \$0-length;
#X obj 231 146 s \$0-spliceLength;
#X obj 230 176 s \$0-reelLength;
#X obj 262 259 s recordLength;
#X obj 112 242 s recordStart;
#X connect 0 0 3 0;
#X connect 0 1 4 0;
#X connect 0 1 5 0;
#X connect 0 1 6 0;
#X connect 0 1 7 0;
#X connect 1 0 0 0;
#X connect 3 0 2 0;
#X connect 3 0 8 0;
#X restore 245 208 pd reel;
#X floatatom 325 583 7 0 0 0 - - -, f 7;
#X floatatom 414 586 5 0 0 0 - - -, f 5;
#X obj 245 134 route reel;
#X connect 0 0 14 0;
#X connect 1 0 14 0;
#X connect 9 0 3 0;
#X connect 9 0 13 0;
#X connect 10 0 2 0;
#X connect 10 0 12 0;
#X connect 14 0 11 0;
#X restore 252 586 pd windowLogic;
#X floatatom 270 614 5 0 0 0 - - -, f 5;
#X floatatom 349 614 10 0 0 0 - - -, f 10;
#X obj 253 287 r reelLengthMS;
#X obj 1105 82 loadbang;
#X obj 577 345 *~;
#X obj 594 301 hsl 128 15 0 10 0 0 empty empty input_gain -2 -8 0 10
-262144 -1 -1 4100 1;
#X floatatom 577 587 10 0 0 0 - - -, f 10;
#X obj 212 732 s~ processed;
#X obj 892 440 hsl 128 15 0 1 0 0 empty empty sound_on_sound -2 -8
0 10 -262144 -1 -1 12700 1;
#X obj 890 471 s sos;
#N canvas 0 22 450 300 crossfade~ 0;
#X obj 97 63 inlet~;
#X obj 176 63 inlet~;
#X obj 255 63 inlet;
#X obj 173 257 outlet~;
#X obj 112 134 *~;
#X obj 133 102 expr~ 1 - $v1;
#X obj 175 134 *~;
#X connect 0 0 4 0;
#X connect 1 0 6 0;
#X connect 2 0 5 0;
#X connect 2 0 6 1;
#X connect 4 0 3 0;
#X connect 5 0 4 1;
#X connect 6 0 3 0;
#X restore 211 811 pd crossfade~;
#X obj 275 756 r sos;
#X obj 592 374 s~ input;
#X obj 211 767 r~ input;
#N canvas 0 22 450 300 crossfade~ 0;
#X obj 97 63 inlet~;
#X obj 176 63 inlet~;
#X obj 255 63 inlet;
#X obj 173 257 outlet~;
#X obj 112 134 *~;
#X obj 133 102 expr~ 1 - $v1;
#X obj 175 134 *~;
#X connect 0 0 4 0;
#X connect 1 0 6 0;
#X connect 2 0 5 0;
#X connect 2 0 6 1;
#X connect 4 0 3 0;
#X connect 5 0 4 1;
#X connect 6 0 3 0;
#X restore 577 445 pd crossfade~;
#X obj 652 422 r sos;
#X obj 614 397 r~ processed;
#X obj 694 589 s recordState;
#X obj 679 266 r inputGain;
#N canvas 316 61 1291 957 routing 0;
#X obj 280 177 s inputGain;
#X obj 986 117 tedium_output 12;
#X obj 986 155 tedium_output 16;
#X obj 631 62 tedium_output 26;
#X obj 735 226 tedium_input 17;
#X text 995 13 digital outs;
#X text 992 220 digital inputs;
#X text 73 28 adc in 1-6;
#X obj 280 85 clip 0 4095;
#X obj 280 54 r adc1;
#X obj 363 85 clip 0 4095;
#X obj 363 54 r adc2;
#X obj 362 176 s varispeed;
#X obj 443 85 clip 0 4095;
#X obj 443 54 r adc3;
#X obj 444 140 s sos;
#X obj 282 298 clip 0 4095;
#X obj 282 267 r adc4;
#X obj 365 298 clip 0 4095;
#X obj 365 267 r adc5;
#X obj 444 298 clip 0 4095;
#X obj 444 267 r adc6;
#X text 631 82 light switch;
#X obj 631 36 r recordState;
#X obj 617 326 f;
#X obj 652 326 + 1;
#X obj 617 349 % 2;
#X floatatom 626 374 5 0 0 0 - - -, f 5;
#X obj 617 402 sel 1;
#X obj 542 429 s recStart;
#X obj 644 435 bang;
#X obj 644 460 s recStop;
#X text 620 208 record;
#X obj 986 36 r eos;
#X obj 994 363 s playControl;
#X obj 1001 521 s makeSplice;
#X obj 444 326 / 4095;
#X obj 365 325 / 4095;
#X obj 282 325 / 4095;
#X obj 444 111 / 4095;
#X obj 363 110 / 4095;
#X obj 280 110 / 4095;
#X msg 986 68 1;
#X obj 1018 69 delay 20;
#X msg 1019 93 0;
#X obj 50 163 terminal_tedium_adc;
#X obj 50 188 s adc1;
#X obj 63 211 s adc2;
#X obj 91 255 s adc4;
#X obj 105 279 s adc5;
#X obj 77 232 s adc3;
#X obj 120 303 s adc6;
#X msg 49 83 open;
#X obj 49 59 r initbang;
#X msg 105 82 open adc;
#X obj 25 116 metro 10;
#X msg 116 137 smooth 4;
#X msg 105 106 deadband 2;
#X obj 709 460 print recStop;
#X obj 541 458 print recStart;
#X obj 1001 460 tedium_input 14;
#X obj 994 297 tgl 15 0 empty empty empty 17 7 0 10 -262144 -1 -1 1
1;
#X obj 1023 271 r initbang;
#X obj 617 227 tedium_input 24;
#X obj 994 247 tedium_input 4;
#X obj 362 133 * 4;
#X obj 362 155 - 2;
#X obj 281 133 * 9;
#X msg 706 292 0;
#X obj 706 270 r initbang;
#X obj 849 105 tedium_input 25;
#X obj 849 140 s doSave;
#X obj 281 355 s delaytime;
#X obj 366 355 s feedback;
#X obj 444 356 s delaymix;
#X connect 4 0 24 0;
#X connect 8 0 41 0;
#X connect 9 0 8 0;
#X connect 10 0 40 0;
#X connect 11 0 10 0;
#X connect 13 0 39 0;
#X connect 14 0 13 0;
#X connect 16 0 38 0;
#X connect 17 0 16 0;
#X connect 18 0 37 0;
#X connect 19 0 18 0;
#X connect 20 0 36 0;
#X connect 21 0 20 0;
#X connect 23 0 3 0;
#X connect 24 0 25 0;
#X connect 24 0 26 0;
#X connect 25 0 24 1;
#X connect 26 0 27 0;
#X connect 26 0 28 0;
#X connect 28 0 29 0;
#X connect 28 0 59 0;
#X connect 28 1 30 0;
#X connect 30 0 31 0;
#X connect 30 0 58 0;
#X connect 33 0 42 0;
#X connect 33 0 43 0;
#X connect 36 0 74 0;
#X connect 37 0 73 0;
#X connect 38 0 72 0;
#X connect 39 0 15 0;
#X connect 40 0 65 0;
#X connect 41 0 67 0;
#X connect 42 0 1 0;
#X connect 43 0 44 0;
#X connect 44 0 1 0;
#X connect 45 0 46 0;
#X connect 45 1 47 0;
#X connect 45 2 50 0;
#X connect 45 3 48 0;
#X connect 45 4 49 0;
#X connect 45 5 51 0;
#X connect 52 0 45 0;
#X connect 53 0 52 0;
#X connect 53 0 54 0;
#X connect 53 0 55 0;
#X connect 53 0 56 0;
#X connect 55 0 45 0;
#X connect 56 0 45 0;
#X connect 57 0 45 0;
#X connect 60 0 35 0;
#X connect 61 0 34 0;
#X connect 62 0 61 0;
#X connect 63 0 24 0;
#X connect 64 0 61 0;
#X connect 65 0 66 0;
#X connect 66 0 12 0;
#X connect 67 0 0 0;
#X connect 68 0 24 1;
#X connect 69 0 68 0;
#X connect 70 0 71 0;
#X restore 1125 462 pd routing;
#X obj 213 945 dac~;
#X obj 213 905 *~ 1;
#X obj 527 218 adc~;
#X obj 534 299 *~ 1;
#X obj 1216 136 s initbang;
#X obj 591 266 r initbang;
#X obj 57 588 r initbang;
#X obj 64 611 r playControl;
#X obj 1105 112 delay 1000;
#X msg 1105 142 \; pd dsp 1 \;;
#X obj 628 469 r recStart;
#X obj 682 446 r recStop;
#X obj 727 471 r recClear;
#X obj 1017 273 r saveReelMeta;
#N canvas 217 22 975 699 persistReel 0;
#X obj 367 91 inlet;
#X text 312 65 takes length of current reel in ms;
#X obj 355 162 pack 0;
#X obj 340 371 textfile;
#X obj 358 289 list prepend add;
#X obj 358 320 list trim;
#X text 239 32 reads and outputs reel length;
#X obj 613 386 soundfiler;
#X msg 407 161 clear;
#X obj 363 126 t f b;
#X obj 573 88 inlet;
#X text 575 64 bang to clear reel meta;
#X obj 206 233 t b b b;
#X msg 227 289 rewind;
#X msg 205 314 bang;
#X obj 354 401 print load reel length;
#X obj 336 526 s reelLengthMS;
#X obj 375 492 s recordingNewReel;
#X obj 389 468 print recording new reel;
#X obj 376 441 < 10;
#X obj 202 193 delay 1000;
#X msg 726 557 1;
#X obj 727 587 s recordingNewReel;
#X obj 725 526 r initbang;
#X obj 203 161 r initbang;
#X obj 611 199 r initbang;
#X msg 719 310 write -wave ./reel.wav reel;
#X msg 613 246 read ./reel.wav reel;
#X msg 431 242 write ./reelmeta.txt;
#X msg 259 264 read ./reelmeta.txt;
#X obj 598 139 r doSave;
#X obj 598 173 bang;
#X connect 0 0 9 0;
#X connect 2 0 4 0;
#X connect 3 0 15 0;
#X connect 3 0 16 0;
#X connect 3 0 19 0;
#X connect 4 0 5 0;
#X connect 5 0 3 0;
#X connect 8 0 3 0;
#X connect 9 0 2 0;
#X connect 9 1 8 0;
#X connect 10 0 8 0;
#X connect 12 0 14 0;
#X connect 12 1 13 0;
#X connect 12 2 29 0;
#X connect 13 0 3 0;
#X connect 14 0 3 0;
#X connect 19 0 17 0;
#X connect 19 0 18 0;
#X connect 20 0 12 0;
#X connect 21 0 22 0;
#X connect 23 0 21 0;
#X connect 24 0 20 0;
#X connect 25 0 27 0;
#X connect 26 0 7 0;
#X connect 27 0 7 0;
#X connect 28 0 3 0;
#X connect 29 0 3 0;
#X connect 30 0 31 0;
#X connect 31 0 28 0;
#X connect 31 0 26 0;
#X restore 1017 314 pd persistReel;
#X obj 1127 273 r clearMeta;
#X obj 333 720 s \$0-playpos;
#X obj 334 677 metro 0.02;
#X obj 333 698 snapshot~;
#X obj 335 652 r initbang;
#X obj 660 616 print recording;
#X obj 100 364 hsl 128 15 0 4000 0 0 empty empty empty -2 -8 0 10 -262144
-1 -1 0 1;
#X obj 97 396 / 4000;
#X obj 97 424 * 4;
#X obj 98 450 - 2;
#N canvas 0 22 483 567 processing~ 0;
#X obj 148 498 outlet~;
#X obj 139 46 inlet~;
#X obj 149 322 vcf~ 0.1;
#X msg 176 274 9000;
#X obj 176 242 r initbang;
#N canvas 108 154 751 562 delay 0;
#X obj 253 480 outlet~;
#X obj 250 40 inlet~;
#X obj 469 112 hsl 128 15 0 1 0 0 empty empty empty -2 -8 0 10 -262144
-1 -1 8100 1;
#X obj 465 146 * 1000;
#X obj 465 174 + 50;
#X obj 465 204 pack 0 1000;
#X obj 465 234 line~;
#X obj 256 296 delread4~ \$0-delayline;
#X obj 254 391 vcf~ 1;
#X msg 322 345 9000;
#X obj 333 479 s~ \$0-feedback;
#X obj 319 46 r~ \$0-feedback;
#X obj 333 449 *~;
#X obj 380 405 hsl 128 15 0 1 0 0 empty empty empty -2 -8 0 10 -262144
-1 -1 4200 1;
#X floatatom 560 197 5 0 0 0 - - -, f 5;
#X obj 249 79 delwrite~ \$0-delayline 1500;
#X obj 322 319 r initbang;
#X obj 465 78 r delaytime;
#X obj 376 372 r feedback;
#X connect 1 0 15 0;
#X connect 2 0 3 0;
#X connect 3 0 4 0;
#X connect 4 0 5 0;
#X connect 4 0 14 0;
#X connect 5 0 6 0;
#X connect 6 0 7 0;
#X connect 7 0 8 0;
#X connect 8 0 0 0;
#X connect 8 0 12 0;
#X connect 9 0 8 1;
#X connect 11 0 15 0;
#X connect 12 0 10 0;
#X connect 13 0 12 1;
#X connect 16 0 9 0;
#X connect 17 0 2 0;
#X connect 18 0 13 0;
#X restore 178 358 pd delay;
#N canvas 0 22 450 300 crossfade~ 0;
#X obj 97 63 inlet~;
#X obj 176 63 inlet~;
#X obj 255 63 inlet;
#X obj 173 257 outlet~;
#X obj 112 134 *~;
#X obj 133 102 expr~ 1 - $v1;
#X obj 175 134 *~;
#X connect 0 0 4 0;
#X connect 1 0 6 0;
#X connect 2 0 5 0;
#X connect 2 0 6 1;
#X connect 4 0 3 0;
#X connect 5 0 4 1;
#X connect 6 0 3 0;
#X restore 143 413 pd crossfade~;
#X obj 259 355 r delaymix;
#X obj 256 388 hsl 128 15 0 1 0 0 empty empty empty -2 -8 0 10 -262144
-1 -1 5400 1;
#X obj 145 453 cyclone/tanh~;
#X connect 1 0 2 0;
#X connect 2 0 6 0;
#X connect 2 0 5 0;
#X connect 3 0 2 1;
#X connect 4 0 3 0;
#X connect 5 0 6 1;
#X connect 6 0 9 0;
#X connect 7 0 8 0;
#X connect 8 0 6 2;
#X connect 9 0 0 0;
#X restore 212 701 pd processing~;
#X connect 0 0 12 1;
#X connect 1 0 12 1;
#X connect 2 0 63 0;
#X connect 2 1 56 0;
#X connect 2 3 7 0;
#X connect 3 0 2 1;
#X connect 4 0 2 0;
#X connect 5 0 11 0;
#X connect 5 0 15 0;
#X connect 5 0 16 0;
#X connect 7 0 8 0;
#X connect 9 0 3 0;
#X connect 12 0 24 0;
#X connect 12 1 14 0;
#X connect 12 1 35 0;
#X connect 13 0 12 1;
#X connect 14 0 58 0;
#X connect 16 0 17 0;
#X connect 17 0 2 2;
#X connect 17 0 18 0;
#X connect 17 1 2 3;
#X connect 17 1 19 0;
#X connect 20 0 5 0;
#X connect 21 0 46 0;
#X connect 22 0 30 0;
#X connect 22 0 32 0;
#X connect 23 0 22 1;
#X connect 26 0 27 0;
#X connect 28 0 39 0;
#X connect 29 0 28 2;
#X connect 31 0 28 0;
#X connect 32 0 12 0;
#X connect 33 0 32 2;
#X connect 34 0 32 1;
#X connect 36 0 23 0;
#X connect 39 0 38 0;
#X connect 39 0 38 1;
#X connect 40 0 41 0;
#X connect 40 1 41 0;
#X connect 41 0 22 0;
#X connect 43 0 23 0;
#X connect 44 0 4 0;
#X connect 45 0 4 0;
#X connect 46 0 47 0;
#X connect 46 0 42 0;
#X connect 48 0 0 0;
#X connect 49 0 1 0;
#X connect 50 0 13 0;
#X connect 51 0 52 0;
#X connect 53 0 52 1;
#X connect 55 0 56 0;
#X connect 56 0 54 0;
#X connect 57 0 55 0;
#X connect 59 0 60 0;
#X connect 60 0 61 0;
#X connect 61 0 62 0;
#X connect 62 0 2 1;
#X connect 63 0 25 0;
#X connect 63 0 28 1;
