#N canvas 22 113 1317 801 10;
#X obj 297 670 dac~;
#X obj 298 595 *~ 1;
#X obj 384 176 *~;
#X floatatom 357 37 5 0 20000 0 - - -, f 5;
#X obj 221 104 phasor~;
#X obj 222 164 +~;
#X obj 223 190 cos~;
#X obj 377 149 cos~;
#X obj 377 94 phasor~;
#X obj 378 123 +~;
#X floatatom 215 48 5 0 20000 0 - - -, f 5;
#X obj 139 238 send~ vco1;
#X obj 460 94 *~;
#X obj 463 50 r~ vco1;
#X floatatom 533 57 5 0 0.35 0 - - -, f 5;
#X obj 328 335 *~;
#X floatatom 583 259 10 0 2 0 - - -, f 10;
#N canvas 151 52 754 678 transition-table 0;
#X obj 428 534 cos~;
#X obj 262 534 cos~;
#X obj 214 529 cos~;
#X msg 158 598 bang;
#X text 242 138 back the phase up one sample;
#X msg 295 444 -0.0005;
#X obj 262 508 *~ 3;
#X obj 427 510 *~ 5;
#X obj 262 559 *~ 0.33333;
#X obj 427 560 *~ -0.2;
#X obj 214 557 *~ -1;
#X msg 159 425 bang;
#X obj 213 468 phasor~ 22.05;
#X obj 214 590 *~ 0.57692;
#X obj 204 259 cos~;
#X obj 156 254 cos~;
#X msg 100 323 bang;
#X msg 13 195 \; pd dsp 1;
#X msg 237 169 -0.0005;
#X obj 204 233 *~ 3;
#X obj 204 284 *~ 0.33333;
#X obj 156 282 *~ -1;
#X msg 100 150 bang;
#X obj 155 193 phasor~ 22.05;
#X obj 156 315 *~ 0.75;
#X obj 214 617 tabwrite~ \$0-transition;
#X obj 156 342 tabwrite~ \$0-transition;
#X text 292 216 twice the table length;
#X text 280 193 period is 2000 samples \,;
#X text 80 369 This one is used - first and third harmonics only.;
#X text 28 644 This alternate one puts in harmonics 1 \, 3 \, and 5
;
#N canvas 0 22 450 300 (subpatch) 0;
#X array \$0-transition 1002 float 0;
#X coords 0 1 1002 -1 200 140 1;
#X restore 539 32 graph;
#X text 537 179 ----- 1002 samples ----;
#X text 24 27 This network puts a half cycle of a band-limited square
wave into the table "array1.";
#X text 22 64 Logically the half-cycle is in samples 1 through 1000
\; samples 0 and 1001 are provided so that the 4-point interpolation
will work everywhere.;
#X obj 160 400 r initbang;
#X connect 0 0 9 0;
#X connect 1 0 8 0;
#X connect 2 0 10 0;
#X connect 3 0 25 0;
#X connect 5 0 12 1;
#X connect 6 0 1 0;
#X connect 7 0 0 0;
#X connect 8 0 13 0;
#X connect 9 0 13 0;
#X connect 10 0 13 0;
#X connect 11 0 5 0;
#X connect 11 0 3 0;
#X connect 12 0 2 0;
#X connect 12 0 6 0;
#X connect 12 0 7 0;
#X connect 13 0 25 0;
#X connect 14 0 20 0;
#X connect 15 0 21 0;
#X connect 16 0 26 0;
#X connect 18 0 23 1;
#X connect 19 0 14 0;
#X connect 20 0 24 0;
#X connect 21 0 24 0;
#X connect 22 0 18 0;
#X connect 22 0 17 0;
#X connect 22 0 16 0;
#X connect 23 0 15 0;
#X connect 23 0 19 0;
#X connect 24 0 26 0;
#X connect 35 0 11 0;
#X restore 650 77 pd transition-table;
#N canvas 446 65 650 587 saw~ 0;
#X floatatom 201 163 0 0 0 0 - - -;
#X obj 53 387 -~;
#X obj 201 237 /~;
#X obj 88 257 *~;
#X obj 88 281 clip~ -0.5 0.5;
#X floatatom 201 115 0 0 0 0 - - -;
#X obj 201 139 mtof;
#X obj 201 67 loadbang;
#X obj 88 305 *~ 1000;
#X obj 88 329 +~ 501;
#X obj 76 219 -~ 0.5;
#X obj 88 353 tabread4~ \$0-transition;
#X obj 201 186 * 0.4;
#X msg 201 91 136.766;
#X obj 93 25 inlet~;
#X obj 51 439 outlet~;
#X connect 0 0 12 0;
#X connect 1 0 15 0;
#X connect 2 0 3 1;
#X connect 3 0 4 0;
#X connect 4 0 8 0;
#X connect 5 0 6 0;
#X connect 6 0 0 0;
#X connect 7 0 13 0;
#X connect 8 0 9 0;
#X connect 9 0 11 0;
#X connect 10 0 3 0;
#X connect 10 0 1 1;
#X connect 11 0 1 0;
#X connect 12 0 2 0;
#X connect 13 0 5 0;
#X connect 14 0 2 1;
#X connect 14 0 10 0;
#X restore 272 190 pd saw~;
#N canvas 0 22 667 338 waveshape~ 0;
#X obj 123 68 inlet~;
#X obj 221 59 inlet~;
#X obj 343 59 inlet;
#X obj 190 237 outlet~;
#X obj 186 177 *~;
#X floatatom 443 47 5 0 1 0 - - -, f 5;
#X obj 274 117 expr abs($f1 - 1);
#X obj 413 119 + 0;
#X obj 242 179 *~;
#X connect 0 0 4 0;
#X connect 1 0 8 0;
#X connect 2 0 6 0;
#X connect 2 0 7 0;
#X connect 4 0 3 0;
#X connect 5 0 6 0;
#X connect 5 0 7 0;
#X connect 6 0 4 1;
#X connect 7 0 8 1;
#X connect 8 0 3 0;
#X restore 224 237 pd waveshape~;
#N canvas 477 147 1025 709 crossfade~ 0;
#X floatatom 654 387 5 0 0 0 - - -, f 5;
#X obj 652 304 clip 0 2;
#X obj 652 335 expr 2 - $f1;
#X obj 654 360 / 2;
#X obj 810 350 - 1;
#X obj 810 371 * -1;
#X obj 810 392 + 1;
#X obj 771 326 moses 1;
#X obj 771 305 clip 0 2;
#X obj 980 255 * -1;
#X obj 980 276 + 1;
#X obj 941 190 clip 1 3;
#X obj 941 211 moses 2;
#X obj 980 234 - 2;
#X obj 942 235 - 1;
#X obj 441 142 inlet~;
#X obj 785 151 inlet;
#X obj 436 559 *~;
#X obj 518 143 inlet~;
#X obj 593 140 inlet~;
#X obj 513 633 outlet~;
#X obj 587 557 *~;
#X obj 513 558 *~;
#X floatatom 776 449 5 0 0 0 - - -, f 5;
#X floatatom 846 484 5 0 0 0 - - -, f 5;
#X obj 941 326 * 1;
#X obj 756 414 * 1;
#X obj 847 226 clip 1 2;
#X obj 846 261 - 1;
#X connect 1 0 2 0;
#X connect 2 0 3 0;
#X connect 3 0 0 0;
#X connect 3 0 17 1;
#X connect 4 0 5 0;
#X connect 5 0 6 0;
#X connect 6 0 26 0;
#X connect 7 0 26 0;
#X connect 7 1 4 0;
#X connect 8 0 7 0;
#X connect 9 0 10 0;
#X connect 10 0 25 0;
#X connect 11 0 12 0;
#X connect 12 0 14 0;
#X connect 12 1 13 0;
#X connect 13 0 9 0;
#X connect 14 0 25 0;
#X connect 15 0 17 0;
#X connect 16 0 1 0;
#X connect 16 0 8 0;
#X connect 16 0 11 0;
#X connect 16 0 27 0;
#X connect 17 0 20 0;
#X connect 18 0 22 0;
#X connect 19 0 21 0;
#X connect 21 0 20 0;
#X connect 22 0 20 0;
#X connect 25 0 24 0;
#X connect 25 0 21 1;
#X connect 26 0 22 1;
#X connect 26 0 23 0;
#X connect 27 0 28 0;
#X connect 28 0 25 0;
#X restore 303 389 pd crossfade~;
#X floatatom 471 204 5 0 1 0 - - -, f 5;
#N canvas 446 65 650 587 saw~ 0;
#X floatatom 201 163 0 0 0 0 - - -;
#X obj 53 387 -~;
#X obj 201 237 /~;
#X obj 88 257 *~;
#X obj 88 281 clip~ -0.5 0.5;
#X floatatom 201 115 0 0 0 0 - - -;
#X obj 201 139 mtof;
#X obj 201 67 loadbang;
#X obj 88 305 *~ 1000;
#X obj 88 329 +~ 501;
#X obj 76 219 -~ 0.5;
#X obj 88 353 tabread4~ \$0-transition;
#X obj 201 186 * 0.4;
#X msg 201 91 136.766;
#X obj 93 25 inlet~;
#X obj 51 439 outlet~;
#X connect 0 0 12 0;
#X connect 1 0 15 0;
#X connect 2 0 3 1;
#X connect 3 0 4 0;
#X connect 4 0 8 0;
#X connect 5 0 6 0;
#X connect 6 0 0 0;
#X connect 7 0 13 0;
#X connect 8 0 9 0;
#X connect 9 0 11 0;
#X connect 10 0 3 0;
#X connect 10 0 1 1;
#X connect 11 0 1 0;
#X connect 12 0 2 0;
#X connect 13 0 5 0;
#X connect 14 0 2 1;
#X connect 14 0 10 0;
#X restore 420 150 pd saw~;
#N canvas 0 22 667 338 waveshape~ 0;
#X obj 123 68 inlet~;
#X obj 221 59 inlet~;
#X obj 343 59 inlet;
#X obj 190 237 outlet~;
#X obj 186 177 *~;
#X floatatom 443 47 5 0 1 0 - - -, f 5;
#X obj 274 117 expr abs($f1 - 1);
#X obj 413 119 + 0;
#X obj 242 179 *~;
#X connect 0 0 4 0;
#X connect 1 0 8 0;
#X connect 2 0 6 0;
#X connect 2 0 7 0;
#X connect 4 0 3 0;
#X connect 5 0 6 0;
#X connect 5 0 7 0;
#X connect 6 0 4 1;
#X connect 7 0 8 1;
#X connect 8 0 3 0;
#X restore 377 242 pd waveshape~;
#X floatatom 434 444 5 0 3 0 - - -, f 5;
#X obj 542 561 tabwrite~ graph1;
#N canvas 0 22 450 278 (subpatch) 0;
#X array graph1 512 float 3;
#A 0 0.5 0.5 0.5 0.5 0.5 0.5 0.5 0.5 0.5 0.5 0.5 0.5 0.5 0.5 0.5 0.5
0.5 0.5 0.5 0.5 0.5 0.5 0.5 0.5 0.5 0.5 0.5 0.5 0.5 0.5 0.5 0.5 0.5
0.5 0.5 0.5 0.5 0.5 0.5 0.5 0.5 0.5 0.5 0.5 0.5 0.5 0.5 0.5 0.5 0.5
0.5 0.5 0.5 0.5 0.5 0.5 0.5 0.5 0.5 0.5 0.5 0.5 0.5 0.5 0.5 0.5 0.5
0.5 0.5 0.5 0.5 0.5 0.5 0.5 0.5 0.5 0.5 0.5 0.5 0.5 0.5 0.5 0.5 0.5
0.5 0.5 0.5 0.5 0.5 0.5 0.5 0.5 0.5 0.5 0.5 0.5 0.5 0.5 0.5 0.5 0.5
0.5 0.5 0.5 0.5 0.5 0.5 0.5 0.5 0.5 0.5 0.5 0.5 0.5 0.5 0.5 0.5 0.5
0.5 0.5 0.5 0.5 0.5 0.5 0.5 0.5 0.5 0.5 0.5 0.5 0.5 0.5 0.5 0.5 0.5
0.5 0.5 0.5 0.5 0.5 0.5 0.5 0.5 0.5 0.5 0.5 -0.5 -0.5 -0.5 -0.5 -0.5
-0.5 -0.5 -0.5 -0.5 -0.5 -0.5 -0.5 -0.5 -0.5 -0.5 -0.5 -0.5 -0.5 -0.5
-0.5 -0.5 -0.5 -0.5 -0.5 -0.5 -0.5 -0.5 -0.5 -0.5 -0.5 -0.5 -0.5 -0.5
-0.5 -0.5 -0.5 -0.5 -0.5 -0.5 -0.5 -0.5 -0.5 -0.5 -0.5 -0.5 -0.5 -0.5
-0.5 -0.5 -0.5 -0.5 -0.5 -0.5 -0.5 -0.5 -0.5 -0.5 -0.5 -0.5 -0.5 -0.5
-0.5 -0.5 -0.5 -0.5 -0.5 -0.5 -0.5 -0.5 -0.5 -0.5 -0.5 -0.5 -0.5 -0.5
-0.5 -0.5 -0.5 -0.5 -0.5 -0.5 -0.5 -0.5 -0.5 -0.5 -0.5 -0.5 -0.5 -0.5
-0.5 -0.5 -0.5 -0.5 -0.5 -0.5 -0.5 -0.5 -0.5 -0.5 -0.5 -0.5 -0.5 -0.5
-0.5 -0.5 -0.5 -0.5 -0.5 -0.5 -0.5 -0.5 -0.5 -0.5 -0.5 -0.5 -0.5 -0.5
-0.5 -0.5 -0.5 -0.5 -0.5 -0.5 -0.5 -0.5 -0.5 -0.5 -0.5 -0.5 -0.5 -0.5
-0.5 -0.5 -0.5 -0.5 -0.5 -0.5 -0.5 -0.5 -0.5 -0.5 -0.5 -0.5 -0.5 -0.5
-0.5 -0.5 -0.5 -0.5 -0.5 -0.5 -0.5 -0.5 -0.5 -0.5 -0.5 -0.5 -0.5 -0.5
-0.5 -0.5 -0.5 -0.5 -0.5 -0.5 -0.5 -0.5 -0.5 -0.5 -0.5 -0.5 -0.5 -0.5
-0.5 -0.5 -0.5 -0.5 -0.5 -0.5 -0.5 -0.5 -0.5 -0.5 -0.5 -0.5 -0.5 -0.5
-0.5 -0.5 -0.5 -0.5 -0.5 -0.5 -0.5 -0.5 -0.5 -0.5 -0.5 -0.5 -0.5 -0.5
-0.5 -0.5 -0.5 -0.5 -0.5 -0.5 -0.5 -0.5 -0.5 -0.5 -0.5 -0.5 -0.5 -0.5
-0.5 -0.5 -0.5 -0.5 -0.5 -0.5 -0.5 -0.5 -0.5 -0.5 -0.5 -0.5 -0.5 -0.5
-0.5 -0.5 -0.5 -0.5 -0.5 -0.5 -0.5 -0.5 -0.5 -0.5 -0.5 -0.5 -0.5 -0.5
-0.5 -0.5 -0.5 -0.5 -0.5 -0.5 -0.5 -0.5 -0.5 -0.5 -0.5 -0.5 -0.5 -0.5
-0.5 -0.5 -0.5 -0.5 -0.5 -0.5 -0.5 -0.5 -0.5 -0.5 -0.5 -0.5 -0.5 -0.5
-0.5 -0.5 0.5 0.5 0.5 0.5 0.5 0.5 0.5 0.5 0.5 0.5 0.5 0.5 0.5 0.5 0.5
0.5 0.5 0.5 0.5 0.5 0.5 0.5 0.5 0.5 0.5 0.5 0.5 0.5 0.5 0.5 0.5 0.5
0.5 0.5 0.5 0.5 0.5 0.5 0.5 0.5 0.5 0.5 0.5 0.5 0.5 0.5 0.5 0.5 0.5
0.5 0.5 0.5 0.5 0.5 0.5 0.5 0.5 0.5 0.5 0.5 0.5 0.5 0.5 0.5 0.5 0.5
0.5 0.5 0.5 0.5 0.5 0.5 0.5 0.5 0.5 0.5 0.5 0.5 0.5 0.5 0.5 0.5 0.5
0.5 0.5 0.5 0.5 0.5 0.5 0.5 0.5 0.5 0.5;
#X coords 0 1 512 -1 200 140 1;
#X restore 736 609 graph;
#X obj 554 508 bng 15 250 50 0 empty empty empty 17 7 0 10 -262144
-1 -1;
#X msg 425 329 0;
#X msg 516 156 0;
#X obj 1088 20 loadbang;
#X obj 1088 46 delay 300;
#X msg 1088 72 \; pd dsp 1 \;;
#X obj 1209 63 s initbang;
#N canvas 0 22 919 628 wavefolder~ 0;
#X obj 548 152 +~ 1;
#X obj 341 171 *~;
#X obj 389 252 +~ 0.25;
#X obj 325 328 cos~;
#X obj 284 263 phasor~;
#X obj 322 301 +~;
#X obj 327 360 *~;
#X obj 338 253 *~;
#X obj 390 191 +~ 0.1;
#X obj 398 147 *~ 2;
#X obj 526 101 +~;
#X obj 314 55 inlet~;
#X obj 330 515 outlet~;
#X obj 330 488 *~;
#X obj 390 459 expr 1 - $f1;
#X obj 525 33 inlet;
#X floatatom 443 510 5 0 0 0 - - -, f 5;
#X obj 395 399 * 10;
#X obj 393 429 clip 0 0.6, f 12;
#X msg 586 58 0;
#X obj 280 209 expr~ tanh($v1);
#X obj 281 434 expr~ tanh($v1);
#X obj 584 31 r initbang;
#X connect 0 0 1 1;
#X connect 0 0 6 1;
#X connect 1 0 20 0;
#X connect 2 0 5 1;
#X connect 3 0 6 0;
#X connect 4 0 5 0;
#X connect 5 0 3 0;
#X connect 6 0 21 0;
#X connect 7 0 5 1;
#X connect 8 0 7 1;
#X connect 9 0 8 0;
#X connect 10 0 0 0;
#X connect 10 0 2 0;
#X connect 10 0 9 0;
#X connect 11 0 1 0;
#X connect 13 0 12 0;
#X connect 14 0 16 0;
#X connect 14 0 13 1;
#X connect 15 0 10 0;
#X connect 15 0 17 0;
#X connect 17 0 18 0;
#X connect 18 0 14 0;
#X connect 19 0 10 0;
#X connect 19 0 17 0;
#X connect 20 0 7 0;
#X connect 21 0 13 0;
#X connect 22 0 19 0;
#X restore 310 494 pd wavefolder~;
#X obj 425 305 r initbang;
#X obj 515 131 r initbang;
#X obj 1087 238 s adc0;
#X obj 1102 259 s adc1;
#X obj 1118 282 s adc2;
#X obj 1134 303 s adc3;
#X obj 1150 239 s adc4;
#X obj 1166 261 s adc5;
#X obj 1182 283 s adc6;
#X obj 1198 305 s adc7;
#X msg 1087 143 open;
#X obj 1087 120 r initbang;
#X msg 1144 142 open adc;
#X obj 1087 170 metro 10;
#X obj 1087 215 terminal_tedium_adc;
#X msg 1144 188 smooth 4;
#X msg 1144 166 deadband 2;
#X obj 990 389 r adc0;
#X obj 991 417 / 4000;
#X obj 992 446 * 128;
#X obj 991 473 mtof;
#X obj 991 503 s vco1freq;
#X obj 1073 419 / 4000;
#X obj 1074 448 * 128;
#X obj 1073 475 mtof;
#X obj 1072 391 r adc3;
#X obj 1073 505 s vco2freq;
#X obj 182 70 r vco1freq;
#X obj 1158 388 r adc1;
#X obj 1158 417 / 4000;
#X obj 1159 446 * 1;
#X obj 1160 502 s waveshape;
#X obj 516 207 r waveshape;
#X obj 992 562 / 4000;
#X obj 992 533 r adc2;
#X obj 992 592 * 0.5;
#X obj 992 621 s crossmod;
#X obj 541 25 r crossmod;
#X obj 1073 562 / 4000;
#X obj 1073 533 r adc4;
#X obj 1073 592 * 2;
#X obj 1167 561 / 4000;
#X obj 1073 621 s mixture;
#X obj 451 347 r mixture;
#X obj 1167 620 s wavefold;
#X obj 1168 591 * 3;
#X obj 1167 532 r adc5;
#X obj 418 422 r wavefold;
#X obj 439 182 send~ vco2;
#X obj 385 59 r vco2freq;
#X connect 1 0 0 0;
#X connect 1 0 0 1;
#X connect 2 0 5 1;
#X connect 3 0 8 0;
#X connect 4 0 5 0;
#X connect 5 0 6 0;
#X connect 5 0 18 0;
#X connect 6 0 11 0;
#X connect 6 0 19 0;
#X connect 7 0 2 0;
#X connect 7 0 23 0;
#X connect 7 0 83 0;
#X connect 8 0 9 0;
#X connect 8 0 22 0;
#X connect 9 0 7 0;
#X connect 10 0 4 0;
#X connect 12 0 9 1;
#X connect 13 0 12 0;
#X connect 14 0 12 1;
#X connect 14 0 2 1;
#X connect 15 0 20 1;
#X connect 16 0 20 3;
#X connect 18 0 19 1;
#X connect 19 0 15 0;
#X connect 19 0 20 0;
#X connect 20 0 34 0;
#X connect 21 0 19 2;
#X connect 21 0 23 2;
#X connect 22 0 23 1;
#X connect 23 0 20 2;
#X connect 23 0 15 1;
#X connect 24 0 34 1;
#X connect 27 0 25 0;
#X connect 28 0 20 3;
#X connect 29 0 23 2;
#X connect 30 0 31 0;
#X connect 31 0 32 0;
#X connect 31 0 33 0;
#X connect 34 0 1 0;
#X connect 34 0 25 0;
#X connect 35 0 28 0;
#X connect 36 0 29 0;
#X connect 45 0 49 0;
#X connect 46 0 45 0;
#X connect 46 0 47 0;
#X connect 46 0 48 0;
#X connect 46 0 50 0;
#X connect 48 0 49 0;
#X connect 49 0 37 0;
#X connect 49 1 38 0;
#X connect 49 2 39 0;
#X connect 49 3 40 0;
#X connect 49 4 41 0;
#X connect 49 5 42 0;
#X connect 49 6 43 0;
#X connect 49 7 44 0;
#X connect 50 0 49 0;
#X connect 51 0 49 0;
#X connect 52 0 53 0;
#X connect 53 0 54 0;
#X connect 54 0 55 0;
#X connect 55 0 56 0;
#X connect 57 0 58 0;
#X connect 58 0 59 0;
#X connect 59 0 61 0;
#X connect 60 0 57 0;
#X connect 62 0 4 0;
#X connect 63 0 64 0;
#X connect 64 0 65 0;
#X connect 65 0 66 0;
#X connect 67 0 23 2;
#X connect 67 0 19 2;
#X connect 68 0 70 0;
#X connect 69 0 68 0;
#X connect 70 0 71 0;
#X connect 72 0 12 1;
#X connect 72 0 2 1;
#X connect 73 0 75 0;
#X connect 74 0 73 0;
#X connect 75 0 77 0;
#X connect 76 0 80 0;
#X connect 78 0 20 3;
#X connect 80 0 79 0;
#X connect 81 0 76 0;
#X connect 82 0 34 1;
#X connect 84 0 8 0;
